<svg width="193" height="229" viewBox="0 0 193 229" fill="none" xmlns="http://www.w3.org/2000/svg">
<path d="M0 0H193V229L96.5 164L0 229V0Z" fill="#98C73D"/>
<path d="M177 193.047V199.016H176.5V201.06L174.764 199.891L174.484 200.306L169.453 196.917L169.732 196.503L164.701 193.114L164.422 193.529L159.391 190.141L159.67 189.726L154.639 186.338L154.359 186.752L149.328 183.364L149.607 182.949L144.576 179.561L144.297 179.976L139.266 176.587L139.545 176.172L134.514 172.784L134.234 173.199L129.203 169.81L129.482 169.396L124.451 166.007L124.172 166.422L119.141 163.034L119.42 162.619L114.389 159.231L114.109 159.645L109.078 156.257L109.357 155.842L104.326 152.454L104.047 152.869L99.0156 149.48L99.2949 149.065L96.7793 147.371L96.5 147.183L96.2207 147.371L93.7051 149.066L93.9844 149.48L88.9531 152.869L88.6738 152.454L83.6426 155.842L83.9219 156.257L78.8906 159.645L78.6113 159.231L73.5801 162.619L73.8594 163.034L68.8281 166.422L68.5488 166.007L63.5176 169.396L63.7969 169.81L58.7656 173.199L58.4863 172.784L53.4551 176.172L53.7344 176.587L48.7031 179.976L48.4238 179.561L43.3926 182.949L43.6719 183.364L38.6406 186.752L38.3613 186.338L33.3301 189.726L33.6094 190.141L28.5781 193.529L28.2988 193.114L23.2676 196.503L23.5469 196.917L18.5156 200.306L18.2363 199.891L16.5 201.06V199.016H16V193.047H16.5V187.078H16V181.109H16.5V175.141H16V169.172H16.5V163.203H16V157.234H16.5V151.266H16V145.297H16.5V139.328H16V133.359H16.5V127.391H16V121.422H16.5V115.453H16V109.484H16.5V103.516H16V97.5469H16.5V91.5781H16V85.6094H16.5V79.6406H16V73.6719H16.5V67.7031H16V61.7344H16.5V55.7656H16V49.7969H16.5V43.8281H16V37.8594H16.5V31.8906H16V25.9219H16.5V19.9531H16V13.9844H16.5V11.5H19.0962V11H25.2885V11.5H31.4808V11H37.6731V11.5H43.8654V11H50.0577V11.5H56.25V11H62.4423V11.5H68.6346V11H74.8269V11.5H81.0192V11H87.2115V11.5H93.4039V11H99.5962V11.5H105.788V11H111.981V11.5H118.173V11H124.365V11.5H130.558V11H136.75V11.5H142.942V11H149.135V11.5H155.327V11H161.519V11.5H167.712V11H173.904V11.5H176.5V13.9844H177V19.9531H176.5V25.9219H177V31.8906H176.5V37.8594H177V43.8281H176.5V49.7969H177V55.7656H176.5V61.7344H177V67.7031H176.5V73.6719H177V79.6406H176.5V85.6094H177V91.5781H176.5V97.5469H177V103.516H176.5V109.484H177V115.453H176.5V121.422H177V127.391H176.5V133.359H177V139.328H176.5V145.297H177V151.266H176.5V157.234H177V163.203H176.5V169.172H177V175.141H176.5V181.109H177V187.078H176.5V193.047H177Z" stroke="white" stroke-dasharray="6 6"/>
<path d="M46.2151 54.232L46.0231 57.624H44.5031L44.2951 54.232H46.2151ZM48.9351 54.232L48.7271 57.624H47.2071L46.9991 54.232H48.9351ZM65.5633 55.832L62.4433 67H59.8033L57.7073 59.048L55.5153 67L52.8913 67.016L49.8833 55.832H52.2833L54.2513 64.504L56.5233 55.832H59.0193L61.1633 64.456L63.1473 55.832H65.5633ZM69.2659 57.64V60.44H73.0259V62.216H69.2659V65.176H73.5059V67H67.0259V55.816H73.5059V57.64H69.2659ZM88.618 55.832V67H86.378V62.248H81.594V67H79.354V55.832H81.594V60.424H86.378V55.832H88.618ZM97.6708 64.872H93.2228L92.4868 67H90.1348L94.1508 55.816H96.7588L100.775 67H98.4068L97.6708 64.872ZM97.0628 63.08L95.4468 58.408L93.8307 63.08H97.0628ZM108.036 67L105.572 62.648H104.516V67H102.276V55.832H106.468C107.332 55.832 108.068 55.9867 108.676 56.296C109.284 56.5947 109.737 57.0053 110.036 57.528C110.345 58.04 110.5 58.616 110.5 59.256C110.5 59.992 110.287 60.6587 109.86 61.256C109.433 61.8427 108.799 62.248 107.956 62.472L110.628 67H108.036ZM104.516 60.968H106.388C106.996 60.968 107.449 60.824 107.748 60.536C108.047 60.2373 108.196 59.8267 108.196 59.304C108.196 58.792 108.047 58.3973 107.748 58.12C107.449 57.832 106.996 57.688 106.388 57.688H104.516V60.968ZM122.558 55.832L118.462 67H115.742L111.646 55.832H114.046L117.118 64.712L120.174 55.832H122.558ZM126.141 57.64V60.44H129.901V62.216H126.141V65.176H130.381V67H123.901V55.816H130.381V57.64H126.141ZM136.273 67.112C135.494 67.112 134.79 66.9787 134.161 66.712C133.542 66.4453 133.051 66.0613 132.689 65.56C132.326 65.0587 132.139 64.4667 132.129 63.784H134.529C134.561 64.2427 134.721 64.6053 135.009 64.872C135.307 65.1387 135.713 65.272 136.225 65.272C136.747 65.272 137.158 65.1493 137.457 64.904C137.755 64.648 137.905 64.3173 137.905 63.912C137.905 63.5813 137.803 63.3093 137.601 63.096C137.398 62.8827 137.142 62.7173 136.833 62.6C136.534 62.472 136.118 62.3333 135.585 62.184C134.859 61.9707 134.267 61.7627 133.809 61.56C133.361 61.3467 132.971 61.032 132.641 60.616C132.321 60.1893 132.161 59.624 132.161 58.92C132.161 58.2587 132.326 57.6827 132.657 57.192C132.987 56.7013 133.451 56.328 134.049 56.072C134.646 55.8053 135.329 55.672 136.097 55.672C137.249 55.672 138.182 55.9547 138.897 56.52C139.622 57.0747 140.022 57.8533 140.097 58.856H137.633C137.611 58.472 137.446 58.1573 137.137 57.912C136.838 57.656 136.438 57.528 135.937 57.528C135.499 57.528 135.147 57.64 134.881 57.864C134.625 58.088 134.497 58.4133 134.497 58.84C134.497 59.1387 134.593 59.3893 134.785 59.592C134.987 59.784 135.233 59.944 135.521 60.072C135.819 60.1893 136.235 60.328 136.769 60.488C137.494 60.7013 138.086 60.9147 138.545 61.128C139.003 61.3413 139.398 61.6613 139.729 62.088C140.059 62.5147 140.225 63.0747 140.225 63.768C140.225 64.3653 140.07 64.92 139.76 65.432C139.451 65.944 138.998 66.3547 138.401 66.664C137.803 66.9627 137.094 67.112 136.273 67.112ZM149.767 55.832V57.64H146.791V67H144.551V57.64H141.575V55.832H149.767ZM39.6543 83.288C39.6543 83.8853 39.5103 84.4453 39.2222 84.968C38.9449 85.4907 38.5023 85.912 37.8943 86.232C37.2969 86.552 36.5396 86.712 35.6223 86.712H33.7503V91H31.5103V79.832H35.6223C36.4863 79.832 37.2223 79.9813 37.8303 80.28C38.4383 80.5787 38.8916 80.9893 39.1903 81.512C39.4996 82.0347 39.6543 82.6267 39.6543 83.288ZM35.5263 84.904C36.1449 84.904 36.6036 84.7653 36.9023 84.488C37.2009 84.2 37.3503 83.8 37.3503 83.288C37.3503 82.2 36.7423 81.656 35.5263 81.656H33.7503V84.904H35.5263ZM43.4526 79.832V86.744C43.4526 87.5013 43.65 88.0827 44.0446 88.488C44.4393 88.8827 44.994 89.08 45.7086 89.08C46.434 89.08 46.994 88.8827 47.3886 88.488C47.7833 88.0827 47.9806 87.5013 47.9806 86.744V79.832H50.2366V86.728C50.2366 87.6773 50.0286 88.4827 49.6126 89.144C49.2073 89.7947 48.658 90.2853 47.9646 90.616C47.282 90.9467 46.5193 91.112 45.6766 91.112C44.8446 91.112 44.0873 90.9467 43.4046 90.616C42.7326 90.2853 42.1993 89.7947 41.8046 89.144C41.41 88.4827 41.2126 87.6773 41.2126 86.728V79.832H43.4526ZM58.1609 91L55.6969 86.648H54.6409V91H52.4009V79.832H56.5929C57.4569 79.832 58.1929 79.9867 58.8009 80.296C59.4089 80.5947 59.8622 81.0053 60.1609 81.528C60.4702 82.04 60.6249 82.616 60.6249 83.256C60.6249 83.992 60.4115 84.6587 59.9849 85.256C59.5582 85.8427 58.9235 86.248 58.0809 86.472L60.7529 91H58.1609ZM54.6409 84.968H56.5129C57.1209 84.968 57.5742 84.824 57.8729 84.536C58.1715 84.2373 58.3209 83.8267 58.3209 83.304C58.3209 82.792 58.1715 82.3973 57.8729 82.12C57.5742 81.832 57.1209 81.688 56.5129 81.688H54.6409V84.968ZM64.8909 79.832V91H62.6509V79.832H64.8909ZM74.704 79.832V81.64H71.728V91H69.488V81.64H66.512V79.832H74.704ZM85.2184 79.832L81.4424 87.112V91H79.2024V87.112L75.4104 79.832H77.9384L80.3384 84.936L82.7224 79.832H85.2184ZM91.3148 91.112C90.9094 91.112 90.5734 90.9893 90.3068 90.744C90.0508 90.488 89.9228 90.1733 89.9228 89.8C89.9228 89.4267 90.0508 89.1173 90.3068 88.872C90.5734 88.616 90.9094 88.488 91.3148 88.488C91.7094 88.488 92.0348 88.616 92.2908 88.872C92.5468 89.1173 92.6748 89.4267 92.6748 89.8C92.6748 90.1733 92.5468 90.488 92.2908 90.744C92.0348 90.9893 91.7094 91.112 91.3148 91.112ZM106.612 92.968L104.916 90.936C104.446 91.0533 103.966 91.112 103.476 91.112C102.43 91.112 101.47 90.8667 100.596 90.376C99.7208 89.8853 99.0275 89.208 98.5155 88.344C98.0035 87.4693 97.7475 86.4827 97.7475 85.384C97.7475 84.296 98.0035 83.32 98.5155 82.456C99.0275 81.5813 99.7208 80.8987 100.596 80.408C101.47 79.9173 102.43 79.672 103.476 79.672C104.532 79.672 105.492 79.9173 106.356 80.408C107.23 80.8987 107.918 81.5813 108.42 82.456C108.932 83.32 109.188 84.296 109.188 85.384C109.188 86.376 108.974 87.2827 108.548 88.104C108.132 88.9147 107.561 89.576 106.836 90.088L109.396 92.968H106.612ZM100.052 85.384C100.052 86.1307 100.196 86.7867 100.484 87.352C100.772 87.9173 101.172 88.3547 101.684 88.664C102.206 88.9627 102.804 89.112 103.476 89.112C104.148 89.112 104.74 88.9627 105.252 88.664C105.764 88.3547 106.164 87.9173 106.452 87.352C106.74 86.7867 106.884 86.1307 106.884 85.384C106.884 84.6373 106.74 83.9867 106.452 83.432C106.164 82.8667 105.764 82.4347 105.252 82.136C104.74 81.8373 104.148 81.688 103.476 81.688C102.804 81.688 102.206 81.8373 101.684 82.136C101.172 82.4347 100.772 82.8667 100.484 83.432C100.196 83.9867 100.052 84.6373 100.052 85.384ZM113.093 79.832V86.744C113.093 87.5013 113.291 88.0827 113.685 88.488C114.08 88.8827 114.635 89.08 115.349 89.08C116.075 89.08 116.635 88.8827 117.029 88.488C117.424 88.0827 117.621 87.5013 117.621 86.744V79.832H119.877V86.728C119.877 87.6773 119.669 88.4827 119.253 89.144C118.848 89.7947 118.299 90.2853 117.605 90.616C116.923 90.9467 116.16 91.112 115.317 91.112C114.485 91.112 113.728 90.9467 113.045 90.616C112.373 90.2853 111.84 89.7947 111.445 89.144C111.051 88.4827 110.853 87.6773 110.853 86.728V79.832H113.093ZM128.89 88.872H124.442L123.706 91H121.354L125.37 79.816H127.978L131.994 91H129.626L128.89 88.872ZM128.282 87.08L126.666 82.408L125.049 87.08H128.282ZM135.735 89.224H139.415V91H133.495V79.832H135.735V89.224ZM143.078 79.832V91H140.838V79.832H143.078ZM152.892 79.832V81.64H149.916V91H147.676V81.64H144.7V79.832H152.892ZM163.406 79.832L159.63 87.112V91H157.39V87.112L153.598 79.832H156.126L158.526 84.936L160.91 79.832H163.406ZM75.8993 103.832V105.64H72.9233V115H70.6833V105.64H67.7073V103.832H75.8993ZM83.2937 115L80.8297 110.648H79.7737V115H77.5337V103.832H81.7257C82.5897 103.832 83.3257 103.987 83.9337 104.296C84.5417 104.595 84.995 105.005 85.2937 105.528C85.603 106.04 85.7577 106.616 85.7577 107.256C85.7577 107.992 85.5444 108.659 85.1177 109.256C84.691 109.843 84.0564 110.248 83.2137 110.472L85.8857 115H83.2937ZM79.7737 108.968H81.6457C82.2537 108.968 82.707 108.824 83.0057 108.536C83.3044 108.237 83.4537 107.827 83.4537 107.304C83.4537 106.792 83.3044 106.397 83.0057 106.12C82.707 105.832 82.2537 105.688 81.6457 105.688H79.7737V108.968ZM89.9917 103.832V110.744C89.9917 111.501 90.189 112.083 90.5837 112.488C90.9784 112.883 91.533 113.08 92.2477 113.08C92.973 113.08 93.533 112.883 93.9277 112.488C94.3224 112.083 94.5197 111.501 94.5197 110.744V103.832H96.7757V110.728C96.7757 111.677 96.5677 112.483 96.1517 113.144C95.7464 113.795 95.197 114.285 94.5037 114.616C93.821 114.947 93.0584 115.112 92.2157 115.112C91.3837 115.112 90.6264 114.947 89.9437 114.616C89.2717 114.285 88.7384 113.795 88.3437 113.144C87.949 112.483 87.7517 111.677 87.7517 110.728V103.832H89.9917ZM102.796 115.112C102.017 115.112 101.313 114.979 100.684 114.712C100.065 114.445 99.5746 114.061 99.2119 113.56C98.8493 113.059 98.6626 112.467 98.6519 111.784H101.052C101.084 112.243 101.244 112.605 101.532 112.872C101.831 113.139 102.236 113.272 102.748 113.272C103.271 113.272 103.681 113.149 103.98 112.904C104.279 112.648 104.428 112.317 104.428 111.912C104.428 111.581 104.327 111.309 104.124 111.096C103.921 110.883 103.665 110.717 103.356 110.6C103.057 110.472 102.641 110.333 102.108 110.184C101.383 109.971 100.791 109.763 100.332 109.56C99.8839 109.347 99.4946 109.032 99.1639 108.616C98.8439 108.189 98.6839 107.624 98.6839 106.92C98.6839 106.259 98.8493 105.683 99.1799 105.192C99.5106 104.701 99.9746 104.328 100.572 104.072C101.169 103.805 101.852 103.672 102.62 103.672C103.772 103.672 104.705 103.955 105.42 104.52C106.145 105.075 106.545 105.853 106.62 106.856H104.156C104.135 106.472 103.969 106.157 103.66 105.912C103.361 105.656 102.961 105.528 102.46 105.528C102.023 105.528 101.671 105.64 101.404 105.864C101.148 106.088 101.02 106.413 101.02 106.84C101.02 107.139 101.116 107.389 101.308 107.592C101.511 107.784 101.756 107.944 102.044 108.072C102.343 108.189 102.759 108.328 103.292 108.488C104.017 108.701 104.609 108.915 105.068 109.128C105.527 109.341 105.921 109.661 106.252 110.088C106.583 110.515 106.748 111.075 106.748 111.768C106.748 112.365 106.593 112.92 106.284 113.432C105.975 113.944 105.521 114.355 104.924 114.664C104.327 114.963 103.617 115.112 102.796 115.112ZM116.29 103.832V105.64H113.314V115H111.074V105.64H108.098V103.832H116.29ZM118.916 115.112C118.511 115.112 118.175 114.989 117.908 114.744C117.652 114.488 117.524 114.173 117.524 113.8C117.524 113.427 117.652 113.117 117.908 112.872C118.175 112.616 118.511 112.488 118.916 112.488C119.311 112.488 119.636 112.616 119.892 112.872C120.148 113.117 120.276 113.427 120.276 113.8C120.276 114.173 120.148 114.488 119.892 114.744C119.636 114.989 119.311 115.112 118.916 115.112ZM123.489 102.232L123.297 105.624H121.777L121.569 102.232H123.489ZM126.209 102.232L126.001 105.624H124.481L124.273 102.232H126.209Z" fill="white"/>
</svg>
