<svg width="96" height="96" viewBox="0 0 96 96" fill="none" xmlns="http://www.w3.org/2000/svg">
<g opacity="0.4">
<path d="M60 48C60 41.3726 54.6274 36 48 36C41.3726 36 36 41.3726 36 48C36 54.6274 41.3726 60 48 60C54.6274 60 60 54.6274 60 48Z" fill="white"/>
<path fill-rule="evenodd" clip-rule="evenodd" d="M69.6281 14.1633C70.6425 12.8534 72.5268 12.6138 73.8368 13.6282C79.1145 17.7151 83.397 22.9003 86.3678 28.811C89.3386 34.7221 90.9213 41.2074 90.9972 47.795C91.0731 54.3826 89.6402 60.9012 86.8059 66.8763C83.9718 72.851 79.8093 78.129 74.6264 82.3306C73.3394 83.374 71.4502 83.1764 70.4068 81.8894C69.3634 80.6023 69.561 78.7131 70.848 77.6697C75.3422 74.0264 78.9397 69.4596 81.3849 64.3048C83.8299 59.1503 85.0629 53.5344 84.9976 47.8641C84.9323 42.1938 83.5702 36.6058 81.0068 31.5054C78.4432 26.4047 74.7408 21.9169 70.1632 18.3721C68.8532 17.3577 68.6136 15.4733 69.6281 14.1633Z" fill="white"/>
<path fill-rule="evenodd" clip-rule="evenodd" d="M26.372 14.1633C25.3575 12.8534 23.4732 12.6138 22.1632 13.6282C16.8856 17.7151 12.603 22.9003 9.63229 28.811C6.66142 34.7221 5.07874 41.2074 5.00286 47.795C4.92699 54.3826 6.35988 60.9012 9.19415 66.8763C12.0283 72.851 16.1908 78.129 21.3736 82.3306C22.6607 83.374 24.5499 83.1764 25.5932 81.8894C26.6366 80.6023 26.4391 78.7131 25.152 77.6697C20.6579 74.0264 17.0604 69.4596 14.6152 64.3048C12.1701 59.1503 10.9372 53.5344 11.0025 47.8641C11.0678 42.1938 12.4298 36.6058 14.9933 31.5054C17.5569 26.4047 21.2592 21.9169 25.8368 18.3721C27.1468 17.3577 27.3864 15.4733 26.372 14.1633Z" fill="white"/>
</g>
<path fill-rule="evenodd" clip-rule="evenodd" d="M48.0625 60C49.7194 60 51 59.6408 51 59.6408V80.6548C51 81.95 49.6569 83 48 83C46.3432 83 45 81.95 45 80.6548V59.6408C45 59.6408 46.4057 60 48.0625 60Z" fill="white"/>
<path fill-rule="evenodd" clip-rule="evenodd" d="M61.6364 30.1526C62.6568 28.8472 64.5422 28.6162 65.8476 29.6366C68.6601 31.8351 70.944 34.6066 72.529 37.7613C74.1143 40.9165 74.9593 44.3735 74.9986 47.8865C75.0378 51.3996 74.2702 54.8737 72.7553 58.0616C71.2407 61.2489 69.0185 64.0676 66.2548 66.324C64.9714 67.3718 63.0815 67.1809 62.0336 65.8974C60.9858 64.614 61.1768 62.7241 62.4602 61.6763C64.5484 59.9714 66.2099 57.8563 67.3361 55.4863C68.4621 53.1169 69.0279 50.5458 68.999 47.9535C68.97 45.3612 68.3468 42.8017 67.1677 40.455C65.9883 38.1077 64.2792 36.0261 62.1525 34.3637C60.8471 33.3433 60.6161 31.4579 61.6364 30.1526Z" fill="white"/>
<path fill-rule="evenodd" clip-rule="evenodd" d="M34.3636 30.1526C33.3432 28.8472 31.4578 28.6162 30.1524 29.6366C27.3399 31.8351 25.056 34.6066 23.471 37.7613C21.8857 40.9165 21.0407 44.3735 21.0014 47.8865C20.9622 51.3996 21.7298 54.8737 23.2447 58.0616C24.7593 61.2489 26.9815 64.0676 29.7452 66.324C31.0287 67.3718 32.9185 67.1809 33.9664 65.8974C35.0142 64.614 34.8232 62.7241 33.5398 61.6763C31.4517 59.9714 29.7901 57.8563 28.6639 55.4863C27.538 53.1169 26.9721 50.5458 27.0011 47.9535C27.03 45.3612 27.6532 42.8017 28.8323 40.455C30.0117 38.1077 31.7208 36.0261 33.8476 34.3637C35.1529 33.3433 35.384 31.4579 34.3636 30.1526Z" fill="white"/>
</svg>
