<svg width="96" height="96" viewBox="0 0 96 96" fill="none" xmlns="http://www.w3.org/2000/svg">
<path opacity="0.4" d="M39.9993 28V52L34.3424 46.3431C32.8421 44.8429 30.8073 44 28.6856 44H28.4233C22.605 44 18.7328 50.0136 21.1404 55.3104L31.736 78.6208C34.3324 84.3327 40.0276 88 46.3019 88H62.7141C68.4558 88 73.7573 84.9234 76.606 79.9382L77.8912 77.6892C79.2726 75.2716 79.9993 72.5354 79.9993 69.751V68C79.9993 59.1634 72.8358 52 63.9993 52H55.9993V28C55.9993 23.5817 52.4176 20 47.9993 20C43.581 20 39.9993 23.5817 39.9993 28Z" fill="white"/>
<path fill-rule="evenodd" clip-rule="evenodd" d="M48 11C36.402 11 27 20.402 27 32C27 33.6569 25.6569 35 24 35C22.3431 35 21 33.6569 21 32C21 17.0883 33.0883 5 48 5C62.9117 5 75 17.0883 75 32C75 33.6569 73.6569 35 72 35C70.3431 35 69 33.6569 69 32C69 20.402 59.598 11 48 11Z" fill="white"/>
</svg>
