<svg xmlns="http://www.w3.org/2000/svg" viewBox="0 0 1000 1250" x="0px" y="0px"><path d="M65.6,269.86c1.37,4.23,5.29,6.91,9.51,6.91,1.02,0,2.07-.16,3.09-.49l42.12-13.69c6.25,14.56,15.64,27.46,27.31,37.85l-25.94,35.7c-3.25,4.47-2.26,10.72,2.21,13.97,1.78,1.29,3.83,1.91,5.87,1.91,3.09,0,6.14-1.43,8.1-4.12l25.86-35.6c13.25,7.97,28.36,13.15,44.51,14.72v43.74c0,5.52,4.48,10,10,10s10-4.48,10-10v-43.66c16.23-1.44,31.44-6.52,44.78-14.42l25.59,35.22c1.96,2.69,5.01,4.12,8.1,4.12,2.04,0,4.1-.62,5.87-1.91,4.47-3.25,5.46-9.5,2.21-13.97l-25.58-35.21c11.86-10.41,21.4-23.4,27.75-38.08l41.32,13.43c1.03,.33,2.07,.49,3.09,.49,4.21,0,8.14-2.69,9.51-6.91,1.71-5.25-1.17-10.89-6.42-12.6l-41.33-13.43c1.67-7.5,2.56-15.3,2.56-23.3s-.93-16.14-2.67-23.8l41.44-13.46c5.25-1.71,8.13-7.35,6.42-12.6-1.71-5.25-7.35-8.13-12.6-6.42l-41.53,13.49c-6.39-14.59-15.94-27.49-27.78-37.82l25.82-35.53c3.25-4.47,2.26-10.72-2.21-13.97-4.47-3.25-10.72-2.26-13.97,2.21l-25.86,35.59c-13.28-7.81-28.39-12.83-44.51-14.26v-44.2c0-5.52-4.48-10-10-10s-10,4.48-10,10v44.28c-16.04,1.56-31.05,6.68-44.24,14.56l-26.13-35.97c-3.25-4.47-9.5-5.46-13.97-2.21-4.47,3.25-5.46,9.5-2.21,13.97l26.17,36.02c-11.65,10.32-21.05,23.13-27.34,37.59l-42.33-13.75c-5.25-1.7-10.89,1.17-12.6,6.42-1.71,5.25,1.17,10.89,6.42,12.6l42.29,13.74c-1.71,7.57-2.61,15.44-2.61,23.52s.87,15.6,2.5,23.02l-42.18,13.71c-5.25,1.71-8.13,7.35-6.42,12.6Zm153.1-116.33c36.94,0,67,30.06,67,67s-30.06,67-67,67-67-30.06-67-67,30.06-67,67-67Z"/><path d="M854.56,688.98c-10.48-38.95-45.82-66.45-86.86-66.45s-76.32,27.45-86.83,66.34c-45.97,3.98-82.17,42.67-82.17,89.66,0,49.63,40.37,90,90,90,13.32,0,26.52-2.97,38.5-8.64,11.98,5.67,25.18,8.64,38.5,8.64s27.61-3.23,40-9.38c12.39,6.15,26.11,9.38,40,9.38,49.63,0,90-40.37,90-90,0-23.89-9.26-46.39-26.08-63.35-14.91-15.04-34.22-24.18-55.05-26.2Zm-8.86,159.55c-12.28,0-24.38-3.25-34.99-9.38-1.55-.9-3.28-1.34-5.01-1.34s-3.46,.45-5.01,1.34c-10.61,6.14-22.71,9.38-34.99,9.38s-23.42-2.98-33.68-8.63c-3-1.65-6.64-1.65-9.64,0-10.26,5.65-21.91,8.63-33.68,8.63-38.6,0-70-31.4-70-70s31.33-69.93,69.87-70c4.97,.15,9.35-3.36,10.22-8.26,5.91-33.46,34.89-57.74,68.91-57.74s63.01,24.29,68.91,57.76c.84,4.74,4.94,8.22,9.75,8.26,38.23,.36,69.33,31.75,69.33,69.98s-31.4,70-70,70Z"/><path d="M269.9,838.92c1.32,.59,2.71,.87,4.08,.87,3.42,0,6.71-1.75,8.57-4.85l99.38-165.26c1.86-3.09,1.91-6.94,.13-10.08s-5.1-5.08-8.7-5.08h-52.42l25.68-113.66c1.11-4.9-1.59-9.86-6.31-11.59-4.71-1.73-9.98,.3-12.31,4.75l-82.56,157.86c-1.62,3.1-1.5,6.82,.31,9.81,1.81,2.99,5.06,4.82,8.55,4.82h47.24l-37.12,120.31c-1.49,4.83,.86,10.01,5.47,12.08Zm.92-152.39l39.41-75.36-11.56,51.15c-.67,2.96,.04,6.07,1.94,8.45s4.77,3.76,7.81,3.76h47.25l-47.9,79.66,16.88-54.71c.94-3.03,.38-6.33-1.51-8.89-1.88-2.55-4.87-4.06-8.05-4.06h-44.28Z"/><path d="M689.43,441.21l8.83,2.43,.48-1.29c24.72-9.72,81.09-37.3,102.67-92.9,15.28-39.36,10.33-84.78-14.71-134.99l-3.91-7.85-9.53,3.27c-40.03,13.63-70,33.65-89.32,59.6-21.26-24.92-52.96-42.9-94.68-53.58l-8.55-2.19-3.24,8.21c-20.37,51.66-21.14,97-2.29,134.74,27.75,55.56,89.14,77.64,114.24,84.56Zm83.18-209.87c19.1,41.73,22.52,78.99,10.15,110.87-15.04,38.74-50.5,62.2-75.38,74.45,7.51-27.24,15.6-76.45-5.99-120.6-1.57-3.21-3.28-6.33-5.1-9.37,15.5-23.62,41.11-42.21,76.31-55.35Zm-89.18,73.51c17.15,35.05,12.46,74.72,6.39,99.89l-82.94-162.53c37.09,13.51,62.8,34.51,76.56,62.64Zm-94.69-54.16l83.43,163.47c-25.18-10.28-61.13-30.5-79.09-66.45-13.64-27.31-15.08-59.87-4.34-97.02Z"/><path d="M573.04,675.48c-2.5-55.98-22.29-117.72-60.5-188.75-49.31-91.66-60.54-174.36-33.38-245.82,.06-.16,.12-.33,.18-.49,10.89-31.06,28.31-58.71,51.78-82.17,41.34-41.34,96.3-64.1,154.76-64.1s113.42,22.77,154.76,64.1c41.34,41.34,64.1,96.3,64.1,154.76s-22.77,113.42-64.1,154.76c-52.25,52.25-126.73,74.53-199.2,59.57-10.82-2.23-21.4,4.73-23.63,15.55-2.23,10.82,4.73,21.4,15.55,23.63,85.7,17.68,173.77-8.66,235.57-70.46,48.89-48.89,75.82-113.9,75.82-183.04s-26.93-134.15-75.82-183.05c-48.89-48.89-113.9-75.82-183.05-75.82s-134.15,26.93-183.04,75.82c-27.68,27.68-48.25,60.31-61.15,96.98-31.35,82.73-19.36,176.52,35.64,278.75,35.27,65.56,53.51,121.65,55.76,171.47,1,29.66-3.88,58.67-14.5,86.23-11,28.55-27.65,54.1-49.48,75.92-41.34,41.34-96.3,64.1-154.76,64.1s-113.42-22.77-154.76-64.1c-41.34-41.34-64.1-96.3-64.1-154.76s22.77-113.42,64.1-154.76c26.59-26.59,59.65-45.95,95.62-56.01,34.9-9.75,72.06-10.7,107.44-2.73,10.78,2.43,21.48-4.34,23.91-15.12,2.43-10.78-4.34-21.48-15.12-23.91-41.83-9.42-85.74-8.3-127,3.23-42.58,11.9-81.7,34.81-113.14,66.25-48.89,48.89-75.82,113.9-75.82,183.04s26.93,134.15,75.82,183.05c48.89,48.89,113.9,75.82,183.05,75.82s134.15-26.93,183.04-75.82c25.81-25.81,45.49-56.03,58.52-89.83,12.58-32.64,18.35-66.98,17.15-102.08,0-.07,0-.14,0-.21Z"/><path d="M882.83,312.23c0-5.52-4.48-10-10-10s-10,4.48-10,10c0,97.6-79.4,177-177,177-5.52,0-10,4.48-10,10s4.48,10,10,10c108.63,0,197-88.37,197-197Z"/><path d="M488.83,312.23c0,5.52,4.48,10,10,10s10-4.48,10-10c0-97.6,79.4-177,177-177,5.52,0,10-4.48,10-10s-4.48-10-10-10c-108.63,0-197,88.37-197,197Z"/><path d="M313.83,881.23c108.63,0,197-88.37,197-197,0-5.52-4.48-10-10-10s-10,4.48-10,10c0,97.6-79.4,177-177,177-5.52,0-10,4.48-10,10s4.48,10,10,10Z"/><path d="M323.83,497.23c0-5.52-4.48-10-10-10-108.63,0-197,88.37-197,197,0,5.52,4.48,10,10,10s10-4.48,10-10c0-97.6,79.4-177,177-177,5.52,0,10-4.48,10-10Z"/><text x="0" y="1015" fill="#000000" font-size="5px" font-weight="bold" font-family="'Helvetica Neue', Helvetica, Arial-Unicode, Arial, Sans-serif">Created by Aman</text><text x="0" y="1020" fill="#000000" font-size="5px" font-weight="bold" font-family="'Helvetica Neue', Helvetica, Arial-Unicode, Arial, Sans-serif">from the Noun Project</text></svg>