<svg xmlns="http://www.w3.org/2000/svg" data-name="Layer 1" viewBox="0 0 128 160" x="0px" y="0px"><title>miscellaneous 183_ SOLID</title><path d="M40.44189,62.21289l1.5459-10.13281A11.44629,11.44629,0,0,0,30.48932,40h-4.9776a11.44687,11.44687,0,0,0-11.499,12.08008l1.54639,10.13281A12.5726,12.5726,0,0,0,26.21967,73.874a14.47514,14.47514,0,0,0,3.32721.0318A12.60316,12.60316,0,0,0,40.44189,62.21289Z"/><path d="M74.001,79.81006c-2.03961,3.03125-2.01709,6.62354-1.99756,9.79291l.00391,20.42682A6.02259,6.02259,0,0,0,78.06738,116h43.86469a6.02264,6.02264,0,0,0,6.06012-5.97021l.00391-20.42529c.01947-3.16992.042-6.7627-1.99811-9.79492-2.41687-3.5918-6.51221-4.687-9.80218-5.56738-1.54694-.41412-3.10059-.76422-4.65771-1.06451a16.77391,16.77391,0,0,1-4.7251,3.29541c1.5332.19287,3.06689.44983,4.59808.75928l-11.373,16.502L87.70306,77.4209c1.82574-.397,3.65533-.71783,5.48206-.94824a16.77842,16.77842,0,0,1-4.72321-3.29547c-1.55713.30029-3.11182.65088-4.65924,1.065C80.5127,75.12256,76.418,76.21826,74.001,79.81006ZM123.86041,85.647c.14935,1.2641.13177,24.38281.13177,24.38281A2.019,2.019,0,0,1,121.93207,112h-17.0722ZM87.44922,112H78.06738a2.019,2.019,0,0,1-2.06006-1.97021s-.01276-22.36432.0401-23.29932l15.01746,20.02344ZM97.647,97.20361l-4.1875,6.07568L77.43018,81.90668c1.34912-1.87451,3.71973-2.76312,6.05811-3.42871Z"/><path d="M75.53809,45.17767a16.75943,16.75943,0,0,1-4.72461,3.29541,62.50621,62.50621,0,0,1,8.34863,1.6333c.93646.25049,1.91309.51813,2.85938.84479a15.70122,15.70122,0,0,1,.665-4c-.85352-.27-1.69531-.49609-2.49023-.709C78.64941,45.82806,77.0957,45.478,75.53809,45.17767Z"/><path d="M98.74847,73.93951a24.67726,24.67726,0,0,0,2.58844-.00983,12.598,12.598,0,0,0,11.10449-11.7168l1.5459-10.13281A11.44629,11.44629,0,0,0,102.48877,40h-4.9776a11.44706,11.44706,0,0,0-11.499,12.08008l1.54639,10.13281A12.59736,12.59736,0,0,0,98.74847,73.93951Z"/><path d="M73.4043,62.73627a2.00016,2.00016,0,0,0-1.62213-1.36859l-4.1474-.5918-1.84814-3.67432a1.99964,1.99964,0,0,0-3.57324,0l-1.84821,3.67432-4.1474.5918a1.99991,1.99991,0,0,0-1.1001,3.42529l2.97949,2.84912L57.395,71.65527a2.00031,2.00031,0,0,0,2.8877,2.122L64,71.85791l3.71832,1.91937a2.00031,2.00031,0,0,0,2.8877-2.122l-.70221-4.01367L72.88232,64.793A2.00058,2.00058,0,0,0,73.4043,62.73627Z"/><path d="M28,106a2.0001,2.0001,0,0,0,2-2V95h4a2,2,0,0,0,0-4H30V87a2,2,0,0,0-4,0v4H22a2,2,0,0,0,0,4h4v9A2.0001,2.0001,0,0,0,28,106Z"/><path d="M2.00153,79.81006C-.03809,82.84131-.01562,86.43359.00391,89.603l.00391,20.42682A6.02263,6.02263,0,0,0,6.06787,116H49.93262a6.02263,6.02263,0,0,0,6.06006-5.97021l.00391-20.42529c.01953-3.16992.042-6.7627-1.99811-9.79492-2.417-3.5918-6.51221-4.687-9.80219-5.56738-1.54687-.41412-3.10059-.76422-4.6582-1.06451a16.75943,16.75943,0,0,1-4.72461,3.29541,62.50621,62.50621,0,0,1,8.34863,1.6333c2.7832.74469,5.938,1.58838,7.51758,3.9361,1.35114,2.0083,1.3335,4.81879,1.31689,7.53711l-.00391,20.4502A2.019,2.019,0,0,1,49.93262,112H6.06787a2.019,2.019,0,0,1-2.06006-1.97021L4.00391,89.57806c-.01709-2.71765-.03418-5.52777,1.31592-7.5351,1.58008-2.34821,4.73438-3.19189,7.51758-3.93658a62.61533,62.61533,0,0,1,8.34808-1.63373,16.77262,16.77262,0,0,1-4.72308-3.29547c-1.55713.30029-3.11182.65088-4.65918,1.065C8.51318,75.12256,4.41852,76.21826,2.00153,79.81006Z"/><path d="M45.31348,46.95068a15.70838,15.70838,0,0,1,.665,4c.94629-.32672,1.92236-.59381,2.85889-.8443a62.61533,62.61533,0,0,1,8.34808-1.63373,16.77262,16.77262,0,0,1-4.72308-3.29547c-1.55713.30029-3.11182.65088-4.65918,1.065C47.00879,46.45508,46.167,46.68121,45.31348,46.95068Z"/><path d="M59.99512,88h8.00928a28.604,28.604,0,0,1,.2876-4H59.70752A28.61329,28.61329,0,0,1,59.99512,88Z"/><path d="M66.48932,12h-4.9776a11.453,11.453,0,0,0-11.499,12.09131L51.55908,34.2334A12.60377,12.60377,0,0,0,62.749,45.9707a24.67615,24.67615,0,0,0,2.58838-.00983A12.60456,12.60456,0,0,0,76.44189,34.2334l1.5459-10.14209A11.45242,11.45242,0,0,0,66.48932,12Z"/><text x="0" y="143" fill="#000000" font-size="5px" font-weight="bold" font-family="'Helvetica Neue', Helvetica, Arial-Unicode, Arial, Sans-serif">Created by WEBTECHOPS LLP</text><text x="0" y="148" fill="#000000" font-size="5px" font-weight="bold" font-family="'Helvetica Neue', Helvetica, Arial-Unicode, Arial, Sans-serif">from the Noun Project</text></svg>