<svg xmlns="http://www.w3.org/2000/svg" data-name="Layer 1" viewBox="0 0 95 118.75" x="0px" y="0px"><path d="M21.651,47.333h7.5l.035-.108a3.317,3.317,0,0,1,2.172-2.164q.739-.237,1.45-.533v0c.5-.208.973-.424,1.409-.648a3.327,3.327,0,0,1,3.063-.007l2.594,1.322a.773.773,0,0,0,.947-.151l2.984-2.983a.772.772,0,0,0,.15-.945l-1.322-2.595a3.332,3.332,0,0,1-.371-1.532,3.156,3.156,0,0,1,.018-.337,1.193,1.193,0,0,1,.043-.288,3.429,3.429,0,0,1,.316-.906q.347-.677.648-1.405v0q.3-.732.535-1.45a3.316,3.316,0,0,1,2.165-2.172l2.769-.9a.785.785,0,0,0,.562-.776h0V28.5c0-.038,0-.075,0-.114s0-.076,0-.112V24.53h0a.788.788,0,0,0-.562-.777l-2.769-.9a3.321,3.321,0,0,1-2.165-2.172c-.154-.479-.333-.964-.535-1.45v0q-.3-.727-.648-1.4a3.325,3.325,0,0,1-.006-3.064l1.322-2.594a.775.775,0,0,0-.15-.947L40.822,8.236a.771.771,0,0,0-.947-.15L37.281,9.407A3.323,3.323,0,0,1,34.218,9.4q-.677-.346-1.405-.649-.713-.3-1.454-.535a3.312,3.312,0,0,1-2.172-2.164l-.9-2.768a.786.786,0,0,0-.777-.563H23.292a.784.784,0,0,0-.777.563l-.9,2.768a3.31,3.31,0,0,1-2.173,2.164c-.493.159-.98.338-1.455.535s-.953.418-1.4.649a3.325,3.325,0,0,1-3.064.006L10.927,8.086a.77.77,0,0,0-.946.15L7,11.218a.772.772,0,0,0-.15.947L8.17,14.759a3.325,3.325,0,0,1-.008,3.064q-.345.675-.648,1.4-.3.714-.535,1.455a3.312,3.312,0,0,1-2.164,2.172l-2.769.9a.785.785,0,0,0-.562.777v4.219a.82.82,0,0,0,.149.484.812.812,0,0,0,.413.292l2.769.9A3.306,3.306,0,0,1,6.979,32.6c.159.493.338.976.533,1.45h0q.313.753.648,1.409a3.323,3.323,0,0,1,.008,3.063L6.848,41.114a.768.768,0,0,0,.15.945l2.983,2.983a.772.772,0,0,0,.946.151l2.594-1.322a3.329,3.329,0,0,1,3.064.007q.655.336,1.409.648v0q.548.227,1.112.421a1.147,1.147,0,0,1,.19.064l.148.048a3.316,3.316,0,0,1,2.173,2.164l.034.108ZM86.8,24.963a1.279,1.279,0,1,1,0,2.558h-3.92a3.137,3.137,0,0,1-2.731-1.578c-.355-.615-.611-.966-.734-.977-.058,0-.241.274-.578.9a3.151,3.151,0,0,1-2.776,1.658H68.8a1.279,1.279,0,1,1,0-2.558h7.26a.612.612,0,0,0,.315-.074.605.605,0,0,0,.212-.235c.888-1.638,1.905-2.326,3.026-2.235,1.055.084,1.959.887,2.744,2.245a.6.6,0,0,0,.213.228.617.617,0,0,0,.309.071Zm-5.8,51.214V83h4.936V76.177ZM72.283,83V76.177H63.254V83Zm2.557-6.818v6.754h3.609V76.177ZM54.53,83V76.177H49.654V83Zm2.558-6.818V83H60.7V76.177ZM77.805,55.038l-4.078,3.407V69.629h4.078V55.038Zm7.3-2.118h5.175V47.667H85.1V52.92Zm5.175,6.11H85.1v10.6h5.175V59.03Zm.75-3.551H84.354a.5.5,0,0,0-.141.02l-.006,0h0a.509.509,0,0,0-.2.123.49.49,0,0,0,0,.7.508.508,0,0,0,.2.122l.012,0a.472.472,0,0,0,.141.021h6.675a.472.472,0,0,0,.141-.022l.01,0a.518.518,0,0,0,.2-.122.493.493,0,0,0,0-.7.52.52,0,0,0-.2-.123l-.01,0a.506.506,0,0,0-.141-.02ZM85.1,41.558h5.175V35.807H85.1v5.751Zm5.925,2.557H84.354a.5.5,0,0,0-.141.021l-.006,0h0a.5.5,0,0,0,0,.944l.012,0a.472.472,0,0,0,.141.021h6.675a.443.443,0,0,0,.141-.022l.01,0a.52.52,0,0,0,.2-.123.493.493,0,0,0,0-.7.506.506,0,0,0-.2-.122l-.01,0a.506.506,0,0,0-.141-.021ZM92.4,32.256H82.984a.5.5,0,0,0,0,.993H92.4a.492.492,0,0,0,.349-.147.489.489,0,0,0,0-.7.5.5,0,0,0-.349-.147ZM66.109,54.449l-4.518,3.639V69.629h4.518V54.449ZM44.46,87.064V72.186H90.279V87.064Zm3.914-13.445H87.222A1.279,1.279,0,0,1,88.5,74.9v9.377a1.279,1.279,0,0,1-1.279,1.279H48.374A1.279,1.279,0,0,1,47.1,84.275V74.9a1.279,1.279,0,0,1,1.279-1.279Zm45.142,16H91.7a1.379,1.379,0,0,1-.145.008H43.181a1.4,1.4,0,0,1-.146-.008H11.247v2.656H93.516V89.622ZM32.6,47.333q.6-.207,1.178-.448h0q.777-.322,1.589-.739a.749.749,0,0,1,.746,0l2.322,1.184Zm9.422,0a3.4,3.4,0,0,0,.6-.482l2.983-2.982a3.377,3.377,0,0,0,.775-1.2v26.96H44.46V49.186a1.856,1.856,0,0,0-1.854-1.853ZM41.9,49.891H14.591V87.064H41.9V49.891ZM17.586,51.728h21.32a1.278,1.278,0,0,1,1.278,1.279V83.761a1.278,1.278,0,0,1-1.278,1.279H17.586a1.279,1.279,0,0,1-1.279-1.279V53.007a1.279,1.279,0,0,1,1.279-1.279Zm31.361,17.9V39.358a3.95,3.95,0,0,0-3.481-3.915c.061-.138.12-.278.179-.418h0c.217-.526.42-1.077.605-1.65a.807.807,0,0,1,.2-.331.823.823,0,0,1,.331-.192l2.768-.9a3.365,3.365,0,0,0,1.692-1.221,3.3,3.3,0,0,0,.516-1.07h1.931a1.135,1.135,0,0,1,1.128,1.127v38.84ZM46.389,40.308a3.453,3.453,0,0,0-.155-.354l-1-1.96a1.392,1.392,0,0,1,1.154,1.364v.95ZM18.809,54.286h4.416v5.253H18.809V54.286Zm0,7.812h4.416v5.065H18.809V62.1ZM33.75,18.291A11.8,11.8,0,1,1,25.4,14.832a11.765,11.765,0,0,1,8.349,3.459ZM25.782,67.163V62.1h4.927v5.065Zm7.486,0V62.1h4.359v5.065Zm4.359,10.37v4.949H33.268V77.533Zm-6.918,0v4.949H25.782V77.533Zm-7.484,0v4.949H18.866V77.533Zm14.4-7.812v5.253H33.268V69.721Zm-6.918,0v5.253H25.782V69.721Zm-7.484,0v5.253H18.866V69.721Zm2.557-10.182V54.286h4.927v5.253Zm7.486,0V54.286h4.359v5.253ZM25.4,12.274a14.365,14.365,0,1,1-10.157,4.208A14.318,14.318,0,0,1,25.4,12.274Z" style="" fill-rule="evenodd"/><text x="0" y="110" fill="#000000" font-size="5px" font-weight="bold" font-family="'Helvetica Neue', Helvetica, Arial-Unicode, Arial, Sans-serif">Created by feri ulan taufiq</text><text x="0" y="115" fill="#000000" font-size="5px" font-weight="bold" font-family="'Helvetica Neue', Helvetica, Arial-Unicode, Arial, Sans-serif">from the Noun Project</text></svg>