<svg width="241" height="50" viewBox="0 0 241 50" fill="none" xmlns="http://www.w3.org/2000/svg">
<path d="M22 16.8123L15.3478 3C14.5437 3.36767 13.7612 3.77444 13 4.21252L20.6733 17C21.1102 16.9244 21.5524 16.8566 22 16.8123Z" fill="#98C73D"/>
<path d="M4 13.9371L13.9909 20C14.3172 19.7429 14.656 19.5018 15 19.2739L5.17466 12C4.75677 12.6254 4.36692 13.272 4 13.9371Z" fill="#98C73D"/>
<path d="M23.7146 15.9797C23.8105 15.9797 23.9041 15.9848 24 15.9873L20.2888 1C19.511 1.21044 18.7481 1.45639 18 1.74036L22.8999 16C23.1707 15.9873 23.4414 15.9797 23.7146 15.9797Z" fill="#98C73D"/>
<path d="M17 17.4814L7.54349 8C7.0064 8.54712 6.49016 9.11517 6 9.70659L15.918 18C16.2726 17.815 16.6324 17.6404 17 17.4814Z" fill="#98C73D"/>
<path d="M20 16.6732L11.7852 5C11.1692 5.46274 10.5732 5.95425 10 6.46928L18.9213 17C19.2733 16.8771 19.6354 16.7674 20 16.6732Z" fill="#98C73D"/>
<path d="M26 16L25.0021 0C24.3257 0.0713833 23.6576 0.181007 23 0.323773L25.1399 15.8904C25.43 15.9158 25.7161 15.9516 26 16Z" fill="#98C73D"/>
<path d="M31.8534 18L39 2.9434C38.263 2.5953 37.5109 2.27999 36.7385 2L31 17.5914C31.2886 17.72 31.5723 17.8563 31.8534 18Z" fill="#98C73D"/>
<path d="M30.1698 18L35 0.581178C34.0464 0.345416 33.075 0.153518 32.0888 0L29 17.6107C29.3939 17.7286 29.7848 17.8602 30.1698 18Z" fill="#98C73D"/>
<path d="M28.3953 17L30 0.105068C29.1082 0.0394005 28.2103 0 27.3003 0C27.2002 0 27.1001 0.0052534 27 0.0078801L27.1608 16.7557C27.5733 16.8267 27.9859 16.9081 28.3953 17Z" fill="#98C73D"/>
<path d="M9.11529 41L5 43.3699C5.426 43.9283 5.87112 44.4743 6.34354 45L10 42.4441C9.68049 41.9786 9.38562 41.4956 9.11529 41Z" fill="#98C73D"/>
<path d="M7.56543 37L3 39.0633C3.28415 39.7247 3.59217 40.3676 3.92168 41L8 38.66C7.83046 38.1199 7.6872 37.5665 7.56543 37Z" fill="#98C73D"/>
<path d="M8 46.6387C8.45749 47.1119 8.93453 47.5623 9.42382 48L12 45.201C11.6183 44.8193 11.2562 44.4198 10.9137 44L8 46.6387Z" fill="#98C73D"/>
<path d="M11 22.9542L0.500259 21C0.29959 21.6056 0.135663 22.2219 0 22.8447L10.0617 24C10.3557 23.6414 10.6665 23.2914 11 22.9542Z" fill="#98C73D"/>
<path d="M2 18.1978L12.0486 22C12.3536 21.649 12.669 21.312 13 20.9861L2.83673 16C2.53176 16.7186 2.25024 17.4512 2 18.1978Z" fill="#98C73D"/>
<path d="M9 25.5995L0.0882878 25C0.03478 25.636 0 26.2743 0 26.92C0 26.9466 0.00267538 26.9733 0.00267538 27L8.40874 26.8738C8.58533 26.4394 8.78333 26.0146 9 25.5995Z" fill="#98C73D"/>
<path d="M6.91623 33.0218C6.91623 33.0156 6.91623 33.0093 6.91623 33L1 34.4017C1.18234 35.2844 1.39672 36.1484 1.63573 37L7 35.0855C6.9458 34.4079 6.91623 33.718 6.91623 33.0218Z" fill="#98C73D"/>
<path d="M8 30L0 30.3872C0.0760298 30.9308 0.18585 31.4684 0.318198 32L7.72404 31.1575C7.79444 30.7663 7.88455 30.3791 8 30Z" fill="#98C73D"/>
<path d="M33.4289 19L31.9287 21.0886C34.9161 22.8815 36.9199 26.1663 36.9199 29.9275C36.9199 35.6045 32.3569 40.2058 26.7273 40.2058C24.7131 40.2058 22.8366 39.6143 21.2559 38.5962L16 47.7988C18.4371 49.1965 21.2559 50 24.2615 50C33.5067 50 41 42.4436 41 33.1206C41.0026 27.2132 37.9892 22.0152 33.4289 19Z" fill="#98C73D"/>
<path d="M63.2646 16.8262C66.6563 16.8262 69.5335 18.8435 70.801 21.7503H75.0493C73.6436 16.7918 68.884 13.1301 63.2646 13.1301C56.5158 13.1301 51 18.4645 51 24.9985C51 31.5326 56.5158 36.867 63.2646 36.867C68.884 36.867 73.6468 33.2084 75.0493 28.2468H70.801C69.568 31.1536 66.6563 33.1739 63.2646 33.1739C58.7434 33.1739 55.0756 29.5154 55.0756 24.9985C55.0756 20.488 58.7434 16.8262 63.2646 16.8262Z" fill="white"/>
<path d="M79.4005 36.4594H95.8447V33.0389H83.4761V26.5079H90.9591V23.2566H83.4761V16.9637H95.9036V13.5432H79.4005V36.4594Z" fill="white"/>
<path d="M152.936 26.9183C152.936 30.3732 150.263 33.1767 146.94 33.1767C143.445 33.1767 140.637 30.3732 140.637 26.9183V13.5432H136.561V26.9151C136.561 32.3873 141.22 36.8697 146.94 36.8697C152.49 36.8697 157.046 32.3905 157.046 26.9151V13.5432H152.936V26.9183Z" fill="white"/>
<path d="M186.661 13.5432H182.585V36.4594H186.661V13.5432Z" fill="white"/>
<path d="M203.278 13.133C196.529 13.133 191.013 18.4674 191.013 25.0015C191.013 31.5355 196.529 36.8699 203.278 36.8699C210.061 36.8699 215.577 31.5324 215.577 25.0015C215.577 18.4705 210.061 13.133 203.278 13.133ZM203.278 33.1769C198.757 33.1769 195.089 29.5183 195.089 25.0015C195.089 20.4877 198.753 16.826 203.278 16.826C207.833 16.826 211.501 20.4846 211.501 25.0015C211.501 29.5152 207.833 33.1769 203.278 33.1769Z" fill="white"/>
<path d="M177.311 20.829C177.311 16.6223 174.058 13.5432 170.013 13.5432H159.132L161.194 16.7601H162.957H169.088C171.488 16.7601 173.405 18.5393 173.405 20.829C173.405 23.1563 171.45 24.9324 168.95 24.9324H166.43L173.816 36.4594H178.237L172.344 27.6356C175.325 26.7115 177.311 24.0772 177.311 20.829Z" fill="white"/>
<path d="M112.314 13.5427V16.9633H117.246V29.7213L102.243 13.4738H100.253V36.4589H103.99V20.2459L118.959 36.5279H120.983V16.9633V13.5427H117.246H112.314Z" fill="white"/>
<path d="M236.921 13.5427H231.986V16.9633H236.921V29.7213L221.914 13.4738H219.928V36.4589H223.662V20.246L238.634 36.5279H240.655V16.9633V13.5427H236.921Z" fill="white"/>
<path d="M123.54 13.5432V16.9637V36.4594H127.616V25.3678V16.9637H132.209V13.5432H127.616H123.54Z" fill="white"/>
<path d="M203.293 22.3293C203.293 23.9174 202.003 25.2079 200.412 25.2079C202.003 25.2079 203.293 26.4953 203.293 28.0834C203.293 26.4953 204.582 25.2079 206.173 25.2079C204.585 25.2079 203.293 23.9174 203.293 22.3293Z" fill="white"/>
</svg>
