<svg
  xmlns="http://www.w3.org/2000/svg"
  xmlns:xlink="http://www.w3.org/1999/xlink"
  version="1.1"
  x="0px"
  y="0px"
  viewBox="0 0 512 640"
  style="enable-background: new 0 0 512 512"
  xml:space="preserve"
>
  <title>OperationalRisk-operational-process-working-risk</title>
  <path
    d="M494.4,147.9L426.6,35c-2.3-3.8-7.2-5-11-2.7c-1.1,0.7-2.1,1.6-2.7,2.7v0l-67.7,112.9c-2.3,3.8-1,8.7,2.7,11  c1.2,0.7,2.7,1.1,4.1,1.1h135.5c4.4,0,8-3.6,8-8C495.5,150.6,495.1,149.1,494.4,147.9z M427.8,144h-16v-16h16V144z M427.8,112h-16  V56h16V112z"
  />
  <path
    d="M78.2,347.7c17.6,34.1,44.6,62.4,77.8,81.6l8-13.8c-30.6-17.6-55.4-43.7-71.6-75.1L78.2,347.7z"
  />
  <path
    d="M172.7,437.9c8.1,3.7,16.5,6.9,25,9.5l4.7-15.3c-7.9-2.4-15.5-5.3-23-8.7L172.7,437.9z"
  />
  <path
    d="M33.2,279.2l-15.9,1.6c0.9,8.3,2.2,16.6,3.9,24.8l15.7-3.3C35.2,294.7,34,287,33.2,279.2z"
  />
  <path
    d="M40.6,317.8l-15.4,4.4c14.3,49.5,44.1,93.2,85.1,124.5c41.8,32.1,93,49.4,145.7,49.3v-16c-49.2,0.2-97-16-136-46  C81.8,404.7,54,364,40.6,317.8z"
  />
  <path
    d="M446.7,287.7l14.2-15l-13.8-19.2l-18.5,9l-34.4-25.3l2.8-20.3l-22.2-7.3l-9.6,18.1h-42.6l-9.6-18.1l-22.2,7.3l2.8,20.3  l-34.4,25.3l-18.5-9l-13.8,19.2l14.2,15l-13.1,40.7l-20.2,3.7v23.8l20.2,3.7l13.1,40.7l-14.2,15l13.8,19.2l18.5-9l34.4,25.3  l-2.8,20.3l22.2,7.3l9.6-18.1l42.6,0l9.6,18.1l22.2-7.3l-2.8-20.3l34.4-25.3l18.5,9l13.8-19.2l-14.2-15l13.1-40.7l20.2-3.7v-23.8  l-20.2-3.7L446.7,287.7z M344,440c-53,0-96-43-96-96s43-96,96-96s96,43,96,96C439.9,397,397,439.9,344,440z"
  />
  <path
    d="M184,177l5.9-2.4c6.1-2.4,10.1-8.3,10.1-14.9V136c0-8.8-7.2-16-16-16s-16,7.2-16,16v23.8c0,6.5,4,12.4,10.1,14.9L184,177z"
  />
  <path
    d="M186.7,195.3l-2.7-1.1l-2.7,1.1c-27.4,10.9-45.4,37.4-45.3,66.9v5c22,12.7,48.2,16.2,72.9,9.6l-2.5-2.6l22.9-31.8  C223.2,220.9,207.4,203.5,186.7,195.3z"
  />
  <path
    d="M33.7,217.8l8.6,26.1l22.8-3.1l27.4,37.3l-10.1,20.7l22.5,16.2l16.8-16l44.2,14.2L170,336h22v-17.3l23.9-4.3l7.3-22.6  l-2-2.2c-58.4,20.5-122.3-10.2-142.8-68.5S88.5,98.9,146.8,78.3s122.3,10.2,142.8,68.5c4.2,11.9,6.3,24.5,6.3,37.1  c0,5-0.3,9.9-1,14.8l19-6.2l0-31.7l20.3-10.7l-8.6-26.1l-22.8,3.1l-5.2-7.1l-22.2-30.2l10.1-20.7l-22.5-16.2l-16.8,16l-44.2-14.2  L198,32H170l-4.1,22.7l-44.2,14.2l-16.8-16L82.3,69.1l10.1,20.7l-27.4,37.3l-22.8-3.1l-8.6,26.1L54,160.9v46.2L33.7,217.8z"
  />
  <path
    d="M280,184c0-53-42.9-96-95.9-96.1S88,130.8,88,183.9c0,27.5,11.7,53.6,32.2,71.8c2.1-29.5,18.9-55.9,44.6-70.3  c-8.1-6-12.9-15.6-12.9-25.7V136c0-17.7,14.3-32,32-32s32,14.3,32,32v23.8c0,10.1-4.7,19.7-12.9,25.7c20.1,11.2,35,29.9,41.4,52  l13.2,6.5l18.9-13.9l-3.3-24.1l4.5-1.5C279.3,197.8,280,190.9,280,184z"
  />
  <path
    d="M344,264c-44.2,0-80,35.7-80,79.9c0,21.6,8.7,42.2,24.1,57.3c1.1-19.2,11.9-36.5,28.7-45.9l10.7-6  c-9.6-5.8-15.5-16.2-15.5-27.4V312c0-17.7,14.3-32,32-32s32,14.3,32,32v9.9c0,11.2-5.9,21.7-15.5,27.4l10.7,6  c16.8,9.3,27.6,26.7,28.7,45.9c31.6-30.8,32.2-81.5,1.3-113.1C386.2,272.7,365.6,264,344,264z"
  />
  <path
    d="M344,340.2l7.8-4.3c5.1-2.8,8.2-8.2,8.2-14V312c0-8.8-7.2-16-16-16s-16,7.2-16,16v9.9c0,5.8,3.2,11.2,8.2,14L344,340.2z"
  />
  <path
    d="M363.4,369.3L344,358.5l-19.4,10.8c-12.7,7.1-20.6,20.4-20.6,35v9c24.7,14.4,55.3,14.4,80,0v-9  C384,389.7,376.1,376.3,363.4,369.3z"
  />
  <text
    x="0"
    y="527"
    fill="#000000"
    font-size="5px"
    font-weight="bold"
    font-family="'Helvetica Neue', Helvetica, Arial-Unicode, Arial, Sans-serif"
  >
    Created by WiStudio
  </text>
  <text
    x="0"
    y="532"
    fill="#000000"
    font-size="5px"
    font-weight="bold"
    font-family="'Helvetica Neue', Helvetica, Arial-Unicode, Arial, Sans-serif"
  >
    from the Noun Project
  </text>
</svg>
