<svg width="28" height="28" viewBox="0 0 28 28" fill="none" xmlns="http://www.w3.org/2000/svg">
<path fill-rule="evenodd" clip-rule="evenodd" d="M27.3346 14.0067C27.3346 21.3705 21.3651 27.34 14.0013 27.34C11.9645 27.34 10.0344 26.8833 8.30772 26.0667L2.04246 27.1109C1.36747 27.2234 0.781432 26.64 0.890947 25.9645L1.91547 19.6454C1.11506 17.9328 0.667969 16.0219 0.667969 14.0067C0.667969 6.64288 6.6375 0.673344 14.0013 0.673344C21.3651 0.673344 27.3346 6.64288 27.3346 14.0067ZM19.3346 17.5732V18.1548C19.3346 18.8094 18.804 19.34 18.1494 19.34C12.9129 19.34 8.66793 15.095 8.66793 9.85853C8.66793 9.20397 9.19856 8.67334 9.85312 8.67334H10.4347C11.1572 8.67334 11.8068 9.11319 12.0751 9.78396L12.324 10.406C12.6021 11.1014 12.3008 11.8939 11.6309 12.2289C11.6309 12.2289 11.9272 13.7104 13.1124 14.8956C14.2976 16.0808 15.779 16.377 15.779 16.377C16.114 15.7071 16.9065 15.4058 17.6019 15.684L18.224 15.9328C18.8948 16.2011 19.3346 16.8508 19.3346 17.5732Z" fill="white"/>
</svg>
