<svg id="Layer_1" data-name="Layer 1" xmlns="http://www.w3.org/2000/svg" viewBox="0 0 377.65 284.82"><defs><style>.cls-1{fill:#fff;}</style></defs><path class="cls-1" d="M145.63,309a33.44,33.44,0,1,0,33.43-33.44A33.44,33.44,0,0,0,145.63,309Z" transform="translate(-11.17 -57.59)"/><path class="cls-1" d="M296.17,309a33.44,33.44,0,1,0,33.43-33.44A33.44,33.44,0,0,0,296.17,309Z" transform="translate(-11.17 -57.59)"/><polygon class="cls-1" points="171.27 131.01 328.57 131.01 377.65 4.78 123.14 4.78 171.27 131.01"/><path class="cls-1" d="M347.52,249.79H152.83a16.57,16.57,0,0,1-15.4-10.47L78.61,90.73H27.74a16.57,16.57,0,1,1,0-33.14H89.87a16.57,16.57,0,0,1,15.41,10.47L164.1,216.65H347.52a16.57,16.57,0,0,1,0,33.14Z" transform="translate(-11.17 -57.59)"/></svg>