<svg id="Layer_1" data-name="Layer 1" xmlns="http://www.w3.org/2000/svg" viewBox="0 0 259.39 369.15"><defs><style>.cls-1{fill:#fff;}</style></defs><path class="cls-1" d="M150.15,193.68q0,48.82,0,97.63v.12c-.06,12.38-.23,24.78-.43,37.14-.1,6.17-1.11,12.67-2,19-.13,1-.19,2.06-.26,3.11,7.94.41,17.17.7,27.93.82C260.76,352.43,251,339,251,339c-3.16-22.16-4.56-47.65-4.64-49V178.18H150.13Q150.14,185.94,150.15,193.68Zm80,40.27c.21-7.74.71-14.95,1-21.14s.89-11.33,1.16-14.93.6-5.66.6-5.66.44,8.27.72,20.64c.12,6.19.25,13.4.39,21.13s.13,16,.19,24.21.07,16.46.1,24.18.06,14.91.27,21.08c.18,3.07.24,5.9.31,8.41s.35,4.68.48,6.47c.5,3.57.79,5.61.79,5.61s-.67-1.94-1.64-5.47a146.7,146.7,0,0,1-2.43-14.84c-.6-6.18-1.33-13.4-1.68-21.15s-.55-16-.62-24.27S229.93,241.69,230.2,234Z" transform="translate(-70.3 -14.03)"/><path class="cls-1" d="M145.45,280.64c.16-26-.06-52.09-.11-78.13q0-12.16-.07-24.33h-7.93c0,2.71,0,5.42,0,8.13q.15,48.81.11,97.63v.11c-.23,12.39-.87,24.78-1.65,37.14-.45,7.21-.86,14.48-1.92,21.63-.16,1.11-.39,4.44-.91,6.82,2.68.24,5.56.46,8.68.67C145.9,327.42,145.32,303.57,145.45,280.64Z" transform="translate(-70.3 -14.03)"/><path class="cls-1" d="M113,346.85c.39-4,2.52-12.72,2.71-14.46.84-7.82,1.35-15.68,1.81-23.54.69-11.85,1.26-23.72,1.54-35.59.6-26-.25-52.08-.46-78.12,0-5.66-.12-11.31-.17-17h-13.8V289.93c-.07,1.38-1.47,26.87-4.64,49C100,339,96.33,343.28,113,346.85Z" transform="translate(-70.3 -14.03)"/><path class="cls-1" d="M329.63,250.4l0-1.31a351.17,351.17,0,0,0-4.07-50.36c-.28-1.71-.55-3.63-.84-5.71-2.08-14.73-4.92-34.92-15.27-44.16-5.91-5.3-20.13-4.53-32.68-3.86-4.22.22-8.19.43-10.94.33-5.89-.22-7.87-2.27-8.44-3.1V132a30.2,30.2,0,0,0,13.09-13.81c4.51-10,2.33-22.49-5-30.12,5.65-6.2,6.48-16.69,1.43-23.95-4.66-6.72-13.54-10.16-22-8.86a31.64,31.64,0,0,0-7.22-19.13c-4.37-5-10.38-6.6-18.47-4.76a32.36,32.36,0,0,0-13.52,7.24c-2.06-5.7-5-11.45-10.28-14.9-5.1-3.3-12.1-4-18.74-1.86A37.64,37.64,0,0,0,163.41,30,22.49,22.49,0,0,0,153.19,17.8c-5.83-3.3-13.29-4.45-21.58-3.37-10.66,1.42-19.8,6.08-25.73,13.13a28.7,28.7,0,0,0-6.42,23.58,22.43,22.43,0,0,0-11.6.73A25,25,0,0,0,73.22,64.11c-4.87,9.56-3.53,22,3.23,31.59-5.5,5.46-7.27,14.81-4,22.43a14.39,14.39,0,0,0,3.8,5.19c4.84,4.18,11.55,4.44,17.25,2.8V289.33c0,.43-2.37,43.13-7.65,65.19-1.35,5.64-.51,10.49,2.5,14.41,9.37,12.2,37.6,12.95,80.33,14.08l6.83.17,6.63-.17c42.73-1.13,71-1.88,80.33-14.08,3-3.92,3.84-8.77,2.49-14.41-1.12-4.67-2.1-10.3-3-16.23-.51-4,11.2-12.35,22.09-17.37,15.15-6.77,26.36-14.44,34.27-23.48C330.1,284.08,329.86,266.19,329.63,250.4Zm-72,43.49c-.18-2.71-.27-4.31-.27-4.36V178.13s2.22-3.88,25.23-2.06l.69.06c11.17.86,11.8,1.46,13.54,12.86,2.9,19,3.65,38.72,4.37,57.8.19,5,.38,9.93.61,14.88.62,13.62-8.81,19.26-9.29,19.54-9.74,5.9-25.67,14.22-30.57,14.22C259.12,295.43,257.76,294.66,257.64,293.89ZM81.25,98a2.43,2.43,0,0,0,1-1.67,2.49,2.49,0,0,0-.54-1.87C75,86.29,73.34,74.7,77.6,66.34a20.4,20.4,0,0,1,11.78-9.79,16.64,16.64,0,0,1,12.76.7,2.45,2.45,0,0,0,2.81-.4,2.47,2.47,0,0,0,.56-2.79c-3.22-7.2-1.56-16.57,4.14-23.33,5.13-6.11,13.17-10.17,22.61-11.42,5-.67,12.33-.73,18.5,2.77,4.41,2.49,8.68,7.59,8.71,13.55a6.41,6.41,0,0,0,0,1.24,2.46,2.46,0,0,0,2.45,2.27h0a2.47,2.47,0,0,0,2.44-2.3c0-.26,0-.52,0-.79a1.59,1.59,0,0,1,.48-.7c4.59-4.49,9-7.36,13.37-8.79,5.23-1.69,10.67-1.2,14.54,1.31,5.14,3.32,7.6,10,9.52,16a2.45,2.45,0,0,0,1.78,1.65,2.41,2.41,0,0,0,2.33-.69c4.27-4.45,9.23-7.5,14-8.58,6.2-1.43,10.53-.42,13.63,3.17,4.11,4.77,6.27,11.49,6.07,18.93a2.47,2.47,0,0,0,3.18,2.42c7.2-2.21,15.63.48,19.63,6.23,4.11,5.93,2.92,15.07-2.5,19.18A2.45,2.45,0,0,0,260.3,90c7.27,6,9.71,17.24,5.68,26.21a24.83,24.83,0,0,1-8.61,10.09A27.21,27.21,0,0,1,250,130a26.85,26.85,0,0,1-7.37,1.25c-9.62.35-19.42-4.61-25.69-12.69a1.94,1.94,0,0,0-2-1,2.47,2.47,0,0,0-1.94,1c-3.73,4.91-10.8,7.58-17.71,6.54-5.22-.75-10.35-3.49-14.82-7.65a36,36,0,0,1-2.65-2.6,2.46,2.46,0,0,0-4,.36,16.28,16.28,0,0,1-1.64,2.24A18.08,18.08,0,0,1,160,123.74a17.83,17.83,0,0,1-14.64-6.31c-.09-.11-.22-.19-.31-.31a2.49,2.49,0,0,0-2.13-.92,2.45,2.45,0,0,0-1.92,1.23l0,0a29.83,29.83,0,0,1-14.1,12.32A27.22,27.22,0,0,1,118,132a22,22,0,0,1-8.21-.83c-3.92-1.24-6.92-4.46-8.82-7.69A20.28,20.28,0,0,1,99.64,121a2.47,2.47,0,0,0-1.47-1.38,2.51,2.51,0,0,0-.81-.14,2.42,2.42,0,0,0-1.2.32,18.12,18.12,0,0,1-2.61,1.16c-4.68,1.73-10.38,1.83-14-1.34A9.56,9.56,0,0,1,77,116.16C74.22,109.75,76.08,101.8,81.25,98Zm175.41,266.4a10.42,10.42,0,0,1-1.83,1.8,32.3,32.3,0,0,0-4.12-1.69,49.22,49.22,0,0,0-10.18-2.08,82.81,82.81,0,0,0-14.63-.12,82.32,82.32,0,0,1,14,3,45.83,45.83,0,0,1,8.77,3.74l.32.2c-13,4.88-38.46,5.57-67,6.33l-6.44.17-6.64-.17c-28.56-.76-54-1.45-67-6.33l.33-.2a45.43,45.43,0,0,1,8.76-3.74,82.32,82.32,0,0,1,14-3,82.81,82.81,0,0,0-14.63.12,49,49,0,0,0-10.17,2.08,31.05,31.05,0,0,0-4.12,1.69,10.85,10.85,0,0,1-1.84-1.8c-1-1.34-2.26-3.65-1.17-8.2,5.44-22.71,7.75-64.73,7.85-66.71V131.32a19.27,19.27,0,0,0,7.34,4.57,26.44,26.44,0,0,0,7.92,1.19c.6,0,1.21-.09,1.82-.12a34.37,34.37,0,0,0,19.11-7.6,33,33,0,0,0,6.35-6.69,22.47,22.47,0,0,0,32.81-2.34A33.43,33.43,0,0,0,194.61,130a24.4,24.4,0,0,0,20.32-6.18,37.33,37.33,0,0,0,27.82,12.33A31.39,31.39,0,0,0,250,135v43.17h0V289.73c.07,1.39,1.52,27.59,4.76,49.77,0,0,0,0,0,.05a0,0,0,0,0,0,0c.88,6,1.89,11.8,3.06,16.66C258.93,360.79,257.69,363.1,256.66,364.44Zm56.19-71.86c-7.19,8.22-17.56,15.28-31.76,21.62-4.14,1.91-14,6.84-20.47,13q-.22-1.82-.42-3.63c6.52-5.52,15.79-10.06,15.86-10.1a107.74,107.74,0,0,0,32.12-23c12.32-13,11.53-26.26,10.78-39.11-.16-2.75-.33-5.53-.37-8.32-.08-6.51-.3-12.94-.67-19.11a2.27,2.27,0,0,0-2.34-2.08,2.22,2.22,0,0,0-2.08,2.34c.36,6.1.59,12.46.67,18.91,0,2.86.21,5.7.37,8.52.73,12.46,1.43,24.23-9.57,35.8a103.42,103.42,0,0,1-30.8,22.07,98.59,98.59,0,0,0-14.51,8.87c-.59-5.87-1.05-11.36-1.41-16a17.68,17.68,0,0,0,3.7.41c8.73,0,30.19-12.74,34.29-15.23.57-.31,13.77-8,12.94-26.24q-.33-7.41-.6-14.83c-.74-19.29-1.5-39.23-4.46-58.64-2.25-14.77-5.66-18-20.26-19.1l-.68-.05c-12.07-1-20.46-.58-25.81,1.19v-1.6c6.33-2.47,21.17-2.57,30.23-2,14,.94,15.07,2.48,17.08,14.14.39,2.3.76,4.59,1.09,6.89a2.21,2.21,0,0,0,2.18,1.9l.32,0a2.23,2.23,0,0,0,1.88-2.51c-.34-2.34-.7-4.68-1.11-7-2.43-14.1-5.59-16.76-21.14-17.81-2.42-.16-20.45-1.25-30.53,1.79V151.05a23.3,23.3,0,0,0,8.16,1.65c3.05.13,7.21-.1,11.61-.33,8.88-.49,23.73-1.27,27.37,2,8.34,7.44,11.08,26.85,12.88,39.7.3,2.11.58,4.08.85,5.82a343.78,343.78,0,0,1,4,49.31v1.31C322.47,265.67,322.69,281.35,312.85,292.58Z" transform="translate(-70.3 -14.03)"/><path class="cls-1" d="M206.58,365.69c-3.1-.42-6.38-.85-9.78-1.05-6.8-.62-14.08-.85-21.35-.84-3.64,0-7.27.16-10.84.3s-7.09.49-10.48.71c-6.79.63-13.1,1.43-18.47,2.39a140.65,140.65,0,0,0-17.72,4l18.07-.64,18.41-.57c6.73-.09,13.9-.35,21.06-.29,14.33-.12,28.65.25,39.44.7,5.39.21,9.9.42,13.06.62l5,.18-4.82-1.34A127.78,127.78,0,0,0,215.29,367C212.6,366.49,209.68,366.05,206.58,365.69Z" transform="translate(-70.3 -14.03)"/><path class="cls-1" d="M246.41,349.32a41.92,41.92,0,0,1-7.33,2.09c-2.88.62-6.19,1.11-9.81,1.55-7.23.87-15.73,1.47-24.88,1.76-4.56.26-9.3.18-14.1.35l-14.55.09-14.64-.1c-4.79-.18-9.51-.09-14.08-.35-9.14-.29-17.64-.89-24.88-1.76-1.82-.18-3.53-.46-5.17-.73s-3.2-.49-4.63-.82a42.88,42.88,0,0,1-7.33-2.08,15.85,15.85,0,0,1-4.28-2.33,3.67,3.67,0,0,1-1.11-1.32,3.71,3.71,0,0,0,.88,1.55,14.16,14.16,0,0,0,4,3.13,44.2,44.2,0,0,0,7.23,3.17,71.61,71.61,0,0,0,9.82,2.77c3.64.87,7.62,1.52,11.84,2.15s8.68,1.15,13.31,1.46c9.26.85,19.18,1,29,1.16,9.94-.14,19.77-.32,29-1.17,4.62-.3,9.08-.91,13.31-1.46s8.2-1.28,11.83-2.15a70.22,70.22,0,0,0,9.82-2.77,44,44,0,0,0,7.24-3.16,13.92,13.92,0,0,0,4-3.14,3.77,3.77,0,0,0,.89-1.54,3.81,3.81,0,0,1-1.11,1.32A16,16,0,0,1,246.41,349.32Z" transform="translate(-70.3 -14.03)"/><path class="cls-1" d="M113.54,56.37s-.14-.87-.25-2.41a25.23,25.23,0,0,1,.44-6.44A26.11,26.11,0,0,1,124.66,30.8a26.07,26.07,0,0,1,19.73-3.19,25.08,25.08,0,0,1,6.06,2.22c1.36.72,2.1,1.2,2.1,1.2a21.68,21.68,0,0,0-7.63-5.09,24.52,24.52,0,0,0-22.16,1.92A24.51,24.51,0,0,0,112,47.33a22.07,22.07,0,0,0,.76,6.72A20.9,20.9,0,0,0,113.54,56.37Z" transform="translate(-70.3 -14.03)"/><path class="cls-1" d="M165.66,42.81A21.82,21.82,0,0,1,186.12,39a20.78,20.78,0,0,1,9.59,6.38A21.67,21.67,0,0,1,200,54.26a22,22,0,0,1,.46,7c0,.3-.06.54-.09.79a18.82,18.82,0,0,0-11.08,6.44,14.42,14.42,0,0,0-1.93,3,16.52,16.52,0,0,1,2.51-2.47,18.31,18.31,0,0,1,8.36-3.74,16,16,0,0,1,12.24,2.54,17.1,17.1,0,0,1,6.83,13,24.69,24.69,0,0,1-.74,5.38c-.39,1.86-.74,3.5-1,4.71L220,88.23a20.24,20.24,0,0,1,4.05-2,12.36,12.36,0,0,1,3.35-.55A13.36,13.36,0,0,1,233.68,87a12.34,12.34,0,0,1,6.5,8.68,14.4,14.4,0,0,1-1.77,10.62,11.08,11.08,0,0,0,1.93-2.42,15,15,0,0,0,2.14-8.48,14.72,14.72,0,0,0-6.78-11.92,16.67,16.67,0,0,0-8.28-2.56,15.93,15.93,0,0,0-4.72.48c-.24,0-.14,0-.17,0l0-.06a2.13,2.13,0,0,0,0-.63,20.23,20.23,0,0,0-9.67-16.55,17.75,17.75,0,0,0-11.83-2.22c.07-.16.14-.29.21-.47A20,20,0,0,0,202.64,54a21.33,21.33,0,0,0-3.33-11.13A21.71,21.71,0,0,0,187.75,34a22.18,22.18,0,0,0-14.49.2,22.57,22.57,0,0,0-9.44,6.7,21.35,21.35,0,0,0-3.76,6.58,16,16,0,0,0-.72,2.63,23.3,23.3,0,0,1,1.45-2.25A25.18,25.18,0,0,1,165.66,42.81Z" transform="translate(-70.3 -14.03)"/><path class="cls-1" d="M250.13,68.91a12.05,12.05,0,0,1,5.41,10.21,10.94,10.94,0,0,1-.79,3.84,9.67,9.67,0,0,1-.67,1.36,6.79,6.79,0,0,0,1.13-1.07,9.8,9.8,0,0,0,2.06-3.85,11.77,11.77,0,0,0-.13-6.69,13.15,13.15,0,0,0-5-6.66A16.42,16.42,0,0,0,238,64a17.4,17.4,0,0,0-5.25,2.44,29.51,29.51,0,0,1,5.54-.71A19,19,0,0,1,250.13,68.91Z" transform="translate(-70.3 -14.03)"/><path class="cls-1" d="M255.59,97.05a16.74,16.74,0,0,1,.3,2.41,18.67,18.67,0,0,1-.71,6.27,19.6,19.6,0,0,1-1.89,4.32,17.94,17.94,0,0,1-2.47,3.35,18.24,18.24,0,0,1-5.78,4,21.64,21.64,0,0,1-3.16,1.18A22.11,22.11,0,0,1,227,117.43a23,23,0,0,1-3.89-2.14,28.38,28.38,0,0,1-4.92-4.14c-.44-.47-.73-.8-1-1.1s-.62-.73-.62-.73.08.27.26.73.36.9.67,1.56a23.17,23.17,0,0,0,3.88,5.68,1,1,0,0,1,.15.14,22.92,22.92,0,0,0,8.58,5.7,21.6,21.6,0,0,0,13.19.55,21.15,21.15,0,0,0,6.71-3.26,17.9,17.9,0,0,0,6.63-8.79,19,19,0,0,0,1.15-5.49,16.8,16.8,0,0,0-1.08-6.86A12.59,12.59,0,0,0,255.59,97.05Z" transform="translate(-70.3 -14.03)"/><path class="cls-1" d="M169.38,107.88a16.69,16.69,0,0,1-2.91,2.17,17,17,0,0,1-7.12,2.54,17.72,17.72,0,0,1-10.73-2.54l-.06,0a16.59,16.59,0,0,1-4.07-3.4,10,10,0,0,0,.34,1.49,10.69,10.69,0,0,0,.8,1.94,12.45,12.45,0,0,0,1.12,1.87,14.75,14.75,0,0,0,8.3,5.51,14.38,14.38,0,0,0,4.83.39,13.9,13.9,0,0,0,2-.39,14.76,14.76,0,0,0,9.3-7.38,7,7,0,0,0,.34-.67,12.29,12.29,0,0,0,1.11-4.12,9.86,9.86,0,0,0,0-1.53A16.28,16.28,0,0,1,169.38,107.88Z" transform="translate(-70.3 -14.03)"/><path class="cls-1" d="M133.92,111.19a17.85,17.85,0,0,1-2.29,3.85,16.89,16.89,0,0,1-2.23,2.39,17.56,17.56,0,0,1-9.51,4.47,18,18,0,0,1-13-4c-.2-.16-.33-.32-.52-.48a17.73,17.73,0,0,1-2.59-2.75l-1-1.41a14.82,14.82,0,0,0,.48,1.66,13.36,13.36,0,0,0,1.22,2.5,15.44,15.44,0,0,0,1.12,1.7,16,16,0,0,0,26.71-1.7,15.11,15.11,0,0,0,.77-1.48,14.53,14.53,0,0,0,1.31-4.62c.06-.56.08-1,.09-1.28v-.45s-.07.16-.18.45S134.1,110.7,133.92,111.19Z" transform="translate(-70.3 -14.03)"/><path class="cls-1" d="M207.23,110.68c-3.06,1.9-7.71,4.31-12.43,2.92a16.35,16.35,0,0,1-6.22-3.55,32,32,0,0,1-4.2-4.59l-3.6-4.87a41,41,0,0,0,2.1,5.77,27.29,27.29,0,0,0,2,3.69,16.3,16.3,0,0,0,8.94,6.92,12.69,12.69,0,0,0,8.88-.85,20.71,20.71,0,0,0,5.58-4.07c.72-.73,1.32-1.4,1.84-2a27.06,27.06,0,0,0,2.11-2.71s-1.56,1.11-4.06,2.71Z" transform="translate(-70.3 -14.03)"/><path class="cls-1" d="M94.81,87.4a14,14,0,0,0,4.75,2.3,13.21,13.21,0,0,0,2.54.4v.06l.23.93a8,8,0,0,0,.39,1.29,17.7,17.7,0,0,0,1.07,2.43,19.73,19.73,0,0,0,3.08,4.1,18.18,18.18,0,0,0,8.3,4.72A15.76,15.76,0,0,0,130,99.35a16.68,16.68,0,0,0,4.8-9.08,12.58,12.58,0,0,0,.12-3.72,13.67,13.67,0,0,1-.66,3.6A16.38,16.38,0,0,1,128.84,98,14,14,0,0,1,116,100.78a15.94,15.94,0,0,1-6.67-4.21,17.14,17.14,0,0,1-2.43-3.39,15.65,15.65,0,0,1-.82-1.94,7,7,0,0,1-.3-1,8.33,8.33,0,0,1-.28-1.43c-.17-.72-.08-1.72-.46-2.19l-2.41,0a10.19,10.19,0,0,1-2.17-.29,11.07,11.07,0,0,1-3.63-1.65,10.13,10.13,0,0,1-4.21-6.12A11.1,11.1,0,0,1,97.49,67a12,12,0,0,1,9.26-1.18,10,10,0,0,1,3.31,1.51,9.52,9.52,0,0,0-3.13-2,12.62,12.62,0,0,0-10.26.14c-4.21,1.84-7.92,7.3-7,13.68A12.93,12.93,0,0,0,94.81,87.4Z" transform="translate(-70.3 -14.03)"/><path class="cls-1" d="M134.47,64.38a16.4,16.4,0,0,0-5.81,9.27A18.52,18.52,0,0,1,130,71.11a17.84,17.84,0,0,1,5.46-5.31,18.54,18.54,0,0,1,10.44-2.92,15.31,15.31,0,0,1,11.23,5.63,12.9,12.9,0,0,1,3,5.74,30.31,30.31,0,0,1,.47,3.31l.19,1.74a15.84,15.84,0,0,0,.52,2.71A2.49,2.49,0,0,0,163,83.53a1.88,1.88,0,0,0,1.08,0,3.89,3.89,0,0,0,.79-.49,8.92,8.92,0,0,1,2.64-2.48,8.59,8.59,0,0,1,4.58-1.43,9.74,9.74,0,0,1,6.62,3.05,8.34,8.34,0,0,1,1.64,2.34,7.75,7.75,0,0,0-1.21-2.68,10.36,10.36,0,0,0-6.87-4.45,10.15,10.15,0,0,0-5.9,1.06c-2.6,1.38-2.24,1.75-2.44,1.07a3.61,3.61,0,0,0,0-.51l-.08-1.69a30.34,30.34,0,0,0-.35-3.72,15.45,15.45,0,0,0-3.66-7.36,17.31,17.31,0,0,0-13.91-6.31A19.21,19.21,0,0,0,134.47,64.38Z" transform="translate(-70.3 -14.03)"/><path class="cls-1" d="M191.35,53.85a15,15,0,0,1,1.83,4.72,11,11,0,0,0,.18-1.42,12.64,12.64,0,0,0-.38-3.94,13.91,13.91,0,0,0-21.88-7.89,12.64,12.64,0,0,0-2.81,2.79,12.46,12.46,0,0,0-.76,1.2,15.11,15.11,0,0,1,4.41-2.46,15.52,15.52,0,0,1,19.41,7Z" transform="translate(-70.3 -14.03)"/><path class="cls-1" d="M237.07,99.83a9.1,9.1,0,0,0-12.43-9.64,6.72,6.72,0,0,0-3,2.06,10.74,10.74,0,0,1,3.31-.34,11,11,0,0,1,10.36,8,10.92,10.92,0,0,1,.49,3.3A6.82,6.82,0,0,0,237.07,99.83Z" transform="translate(-70.3 -14.03)"/><path class="cls-1" d="M125.23,148.23a2.56,2.56,0,1,0-2.57-2.56A2.56,2.56,0,0,0,125.23,148.23Z" transform="translate(-70.3 -14.03)"/><path class="cls-1" d="M136.94,141.3a2.56,2.56,0,0,0,.27-.05,2,2,0,0,0,0-3.9,1.84,1.84,0,0,0-.25,0,2,2,0,0,0,0,4Z" transform="translate(-70.3 -14.03)"/><path class="cls-1" d="M136.94,160.73a2.05,2.05,0,0,0,.34-.07,2,2,0,0,0,0-3.87,1.8,1.8,0,0,0-.32-.06,2,2,0,0,0,0,4Z" transform="translate(-70.3 -14.03)"/><path class="cls-1" d="M146.77,152.79a2.28,2.28,0,1,0-1.57-3.92,2.28,2.28,0,0,0,1.57,3.92Z" transform="translate(-70.3 -14.03)"/><path class="cls-1" d="M151.38,139.3a2.34,2.34,0,1,0,0-4.67,2.32,2.32,0,0,0-2.32,2.27s0,0,0,.06a2.44,2.44,0,0,0,2.33,2.34Z" transform="translate(-70.3 -14.03)"/><path class="cls-1" d="M112,148.23a2.56,2.56,0,1,0-2.56-2.56A2.55,2.55,0,0,0,112,148.23Z" transform="translate(-70.3 -14.03)"/><path class="cls-1" d="M125.21,163.83a2.55,2.55,0,1,0-2.55-2.55A2.55,2.55,0,0,0,125.21,163.83Z" transform="translate(-70.3 -14.03)"/><path class="cls-1" d="M166.06,136.73a2.1,2.1,0,1,0-2.1-2.09A2.1,2.1,0,0,0,166.06,136.73Z" transform="translate(-70.3 -14.03)"/><path class="cls-1" d="M177.91,163.63a2.45,2.45,0,1,0-2.45-2.45A2.45,2.45,0,0,0,177.91,163.63Z" transform="translate(-70.3 -14.03)"/><path class="cls-1" d="M182.86,145.67a2.08,2.08,0,1,0,2.08,2.08A2.08,2.08,0,0,0,182.86,145.67Z" transform="translate(-70.3 -14.03)"/><path class="cls-1" d="M182.5,134.31a2.15,2.15,0,1,0-2.15-2.15A2.15,2.15,0,0,0,182.5,134.31Z" transform="translate(-70.3 -14.03)"/><path class="cls-1" d="M209.28,137.91a2.06,2.06,0,1,0-2.06-2.06A2.06,2.06,0,0,0,209.28,137.91Z" transform="translate(-70.3 -14.03)"/><path class="cls-1" d="M195.65,141.3a2.48,2.48,0,1,0-2.47-2.47A2.48,2.48,0,0,0,195.65,141.3Z" transform="translate(-70.3 -14.03)"/><path class="cls-1" d="M204.35,157.18a2.88,2.88,0,1,0-2.88-2.88A2.88,2.88,0,0,0,204.35,157.18Z" transform="translate(-70.3 -14.03)"/><path class="cls-1" d="M219.1,148.22a2.56,2.56,0,1,0-2.55-2.56A2.56,2.56,0,0,0,219.1,148.22Z" transform="translate(-70.3 -14.03)"/><path class="cls-1" d="M111.16,169.21a1.77,1.77,0,1,0-1.77-1.77A1.77,1.77,0,0,0,111.16,169.21Z" transform="translate(-70.3 -14.03)"/></svg>