<svg id="Layer_1" data-name="Layer 1" xmlns="http://www.w3.org/2000/svg" viewBox="0 0 309.74 380.85"><defs><style>.cls-1{fill:#fff;}</style></defs><path class="cls-1" d="M348.05,110.88H52a6.82,6.82,0,0,0-6.82,6.82V354.38a36.08,36.08,0,0,0,36,36H318.83a36.08,36.08,0,0,0,36-36V117.7A6.82,6.82,0,0,0,348.05,110.88Zm-6.82,243.5a22.43,22.43,0,0,1-22.4,22.41H81.17a22.43,22.43,0,0,1-22.41-22.41V124.51H341.23Z" transform="translate(-45.13 -9.58)"/><path class="cls-1" d="M318.83,9.58H81.17a36.08,36.08,0,0,0-36,36V98.21A6.82,6.82,0,0,0,52,105h296.1a6.82,6.82,0,0,0,6.82-6.82V45.62A36.08,36.08,0,0,0,318.83,9.58ZM341.24,91.4H58.77V45.62a22.43,22.43,0,0,1,22.4-22.41H318.83a22.43,22.43,0,0,1,22.41,22.41Z" transform="translate(-45.13 -9.58)"/><path class="cls-1" d="M258.63,34.9A22.41,22.41,0,1,0,281,57.3,22.43,22.43,0,0,0,258.63,34.9Zm0,31.17a8.77,8.77,0,1,1,8.77-8.77A8.78,8.78,0,0,1,258.63,66.07Z" transform="translate(-45.13 -9.58)"/><path class="cls-1" d="M307.33,34.9a22.41,22.41,0,1,0,22.4,22.4A22.43,22.43,0,0,0,307.33,34.9Zm0,31.17a8.77,8.77,0,1,1,8.77-8.77A8.78,8.78,0,0,1,307.33,66.07Z" transform="translate(-45.13 -9.58)"/><path class="cls-1" d="M162.2,33H96a24.36,24.36,0,1,0,0,48.71H162.2a24.36,24.36,0,0,0,0-48.71Zm0,35.07H96a10.72,10.72,0,1,1,0-21.43H162.2a10.72,10.72,0,0,1,0,21.43Z" transform="translate(-45.13 -9.58)"/><path class="cls-1" d="M92.3,292.24h20.23a98.37,98.37,0,1,0-1.17-87.66H92.3a6.81,6.81,0,0,0-6.81,6.82v74A6.81,6.81,0,0,0,92.3,292.24Zm6.82-74h11.69V278.6H99.12ZM200,162.5a84.74,84.74,0,1,1-75.56,123.07c0-.05,0-.1,0-.15v-74a6.5,6.5,0,0,0-.29-1.94A84.85,84.85,0,0,1,200,162.5Z" transform="translate(-45.13 -9.58)"/><path class="cls-1" d="M131.41,254v.05c.06.54.13,1.07.2,1.6s.13,1.16.22,1.73.16,1,.25,1.48.2,1.22.32,1.83c.09.45.2.9.3,1.34.14.65.28,1.3.45,1.95.09.39.2.78.31,1.17.18.7.38,1.41.59,2.1l.3.95c.25.78.51,1.56.79,2.33.08.22.16.45.25.67.32.88.67,1.74,1,2.6,0,.12.09.23.14.35.44,1,.92,2.08,1.42,3.1.35.72.73,1.44,1.1,2.15.15.28.29.56.44.83.45.83.93,1.64,1.41,2.44l.25.43c.54.87,1.09,1.73,1.66,2.58l.11.15A68.27,68.27,0,0,0,167,307.75l.11.06c.89.48,1.79.94,2.7,1.39a2.44,2.44,0,0,0,.28.14c1,.47,2,.92,3,1.35l.36.15c.85.36,1.72.7,2.59,1l.75.28c.75.26,1.5.52,2.26.76l1.05.33c.67.2,1.35.39,2,.57l1.26.33c.63.16,1.25.3,1.88.44l1.41.29c.6.12,1.22.23,1.83.33s1,.17,1.46.24,1.25.17,1.88.24l1.44.17c.7.07,1.42.11,2.13.16l1.21.08c1.12.06,2.25.09,3.38.09s2.32,0,3.47-.09c.3,0,.59,0,.88-.06.86,0,1.73-.11,2.58-.2l.82-.1c.88-.1,1.76-.2,2.63-.33l.59-.1c.95-.15,1.9-.32,2.84-.51l.29-.07c.72-.14,1.43-.31,2.14-.48l1.61-.41.46-.12,1.88-.55.1,0c.93-.29,1.85-.6,2.76-.92l.19-.07a68.55,68.55,0,0,0,24.81-15.48c1.38-1.34,2.67-2.75,3.92-4.19.13-.15.26-.29.38-.44.5-.58,1-1.16,1.46-1.76l.82-1.05c.36-.48.73-.95,1.08-1.43.63-.87,1.25-1.75,1.85-2.66l0-.05c.64-1,1.26-2,1.86-3,.17-.28.34-.57.5-.86.26-.46.52-.92.77-1.38.38-.71.75-1.42,1.1-2.14.16-.31.31-.63.46-.95.4-.85.8-1.7,1.16-2.57.06-.13.11-.27.17-.41.35-.84.69-1.68,1-2.54l.35-1c.23-.67.47-1.35.69-2,.16-.5.3-1,.45-1.5s.3-1,.44-1.54.34-1.33.5-2c.08-.36.17-.72.25-1.08.18-.8.34-1.61.48-2.42.05-.24.09-.47.13-.71q.24-1.38.42-2.76c0-.15,0-.29.05-.43.13-1,.23-2,.31-3a2,2,0,0,1,0-.25c.08-1.05.13-2.1.17-3.16v-.09c0-.68.05-1.36.05-2a68.93,68.93,0,0,0-137.86,0c0,2.28.12,4.53.34,6.76C131.41,254,131.4,254,131.41,254ZM200,192a55.34,55.34,0,0,1,55.27,54.51c-1.77,1.85-3.08,2.62-5.39,2.69-3.09.1-4.54-1.22-7.6-4.34-3.59-3.67-8.52-8.74-17.79-8.43S210.66,242,207.3,246c-2.89,3.36-4.19,4.72-7.3,4.82s-4.54-1.21-7.6-4.34c-3.59-3.66-8.5-8.73-17.78-8.43s-13.84,5.66-17.2,9.57c-2.89,3.36-4.18,4.72-7.3,4.83-2.14.07-3.46-.49-5.33-2.14,0-1-.08-2-.08-3A55.35,55.35,0,0,1,200,192Zm5.46,110.31c-.72.07-1.46.13-2.2.17l-.58,0c-.89,0-1.78.06-2.68.06s-1.75,0-2.62-.06l-.65,0c-.7,0-1.41-.09-2.11-.16l-.47,0A55,55,0,0,1,147.93,266h0a19.86,19.86,0,0,0,2.58.06c9.23-.29,13.84-5.65,17.2-9.56,2.89-3.36,4.19-4.73,7.3-4.83s4.54,1.22,7.6,4.34c3.49,3.57,8.27,8.45,17,8.45h0l.76,0c9.23-.3,13.84-5.65,17.2-9.56,2.89-3.36,4.18-4.73,7.3-4.83s4.54,1.22,7.6,4.34c3.59,3.67,8.53,8.74,17.78,8.43a22.36,22.36,0,0,0,2.81-.26h0a54.9,54.9,0,0,1-47.32,39.71Z" transform="translate(-45.13 -9.58)"/></svg>