<svg id="Layer_1" data-name="Layer 1" xmlns="http://www.w3.org/2000/svg" viewBox="0 0 360.06 308.35"><defs><style>.cls-1{fill:#fff;fill-rule:evenodd;}</style></defs><path class="cls-1" d="M88.67,293.22H333.83L322.65,139,268.26,250.6l-60.81-65-45.6,73L121.91,219.3ZM24,45.83H376a4,4,0,0,1,4,3.87V350.15a4,4,0,0,1-4,4H24a4,4,0,0,1-4-4V49.7a4,4,0,0,1,4-3.87ZM49.33,69.52H350.67a3.34,3.34,0,0,1,3.43,3.28V327.2a3.34,3.34,0,0,1-3.43,3.28H49.33a3.34,3.34,0,0,1-3.43-3.28V72.8a3.34,3.34,0,0,1,3.43-3.28Zm61.1,49.33a25.71,25.71,0,1,0,25.78,25.79,25.7,25.7,0,0,0-25.78-25.79Z" transform="translate(-19.97 -45.83)"/></svg>