<svg id="Layer_1" data-name="Layer 1" xmlns="http://www.w3.org/2000/svg" viewBox="0 0 356.43 356.43"><defs><style>.cls-1{fill:#fff;}</style></defs><path class="cls-1" d="M376.87,245.75a391.68,391.68,0,0,0-88.08-134.54A391.68,391.68,0,0,0,154.25,23.13a19.49,19.49,0,0,0-25.59,12L113.19,81.51a4.77,4.77,0,0,0,3,6,317.93,317.93,0,0,1,120.61,75.66,317.93,317.93,0,0,1,75.66,120.61,4.77,4.77,0,0,0,6,3l46.41-15.47A19.49,19.49,0,0,0,376.87,245.75Z" transform="translate(-21.78 -21.78)"/><path class="cls-1" d="M289.37,291.3a293.78,293.78,0,0,0-69.74-110.93A293.73,293.73,0,0,0,108.7,110.63a4.93,4.93,0,0,0-6.26,3.11L22.81,352.63a19.42,19.42,0,0,0,24.56,24.56l238.89-79.63A4.93,4.93,0,0,0,289.37,291.3ZM97,333.56a19.41,19.41,0,1,1,0-27.45A19.42,19.42,0,0,1,97,333.56Zm12-73.78a12.13,12.13,0,0,1-17.15,17.16,36.44,36.44,0,0,1,0-51.47A12.13,12.13,0,0,1,109,242.62,12.15,12.15,0,0,0,109,259.78Zm15.44-90.94a29.12,29.12,0,1,1,0,41.18A29.12,29.12,0,0,1,124.48,168.84Zm58.34,133.84a24.27,24.27,0,1,1,0-34.32A24.28,24.28,0,0,1,182.82,302.68Zm48.29-31.86h-.33A12.14,12.14,0,0,1,219,258.37a12.11,12.11,0,0,0-11.81-12.43,12.14,12.14,0,0,1-11.82-12.45c.18-6.71,6.06-11.63,12.44-11.82A36.41,36.41,0,0,1,243.23,259,12.13,12.13,0,0,1,231.11,270.82Z" transform="translate(-21.78 -21.78)"/></svg>